<?xml version="1.0" standalone="no"?>
<svg xmlns="http://www.w3.org/2000/svg" version="1.1" width="1200" height="1200" viewBox="436.768322 294.000000 126.463356 226.000000">
<line x1="500.000000" y1="500.000000" x2="500.000000" y2="497.000000" stroke="black" stroke-width="0.5" />
<line x1="500.000000" y1="497.000000" x2="500.000000" y2="494.000000" stroke="black" stroke-width="0.5" />
<line x1="500.000000" y1="494.000000" x2="500.000000" y2="491.000000" stroke="black" stroke-width="0.5" />
<line x1="500.000000" y1="491.000000" x2="500.000000" y2="488.000000" stroke="black" stroke-width="0.5" />
<line x1="500.000000" y1="488.000000" x2="500.000000" y2="485.000000" stroke="black" stroke-width="0.5" />
<line x1="500.000000" y1="485.000000" x2="500.000000" y2="482.000000" stroke="black" stroke-width="0.5" />
<line x1="500.000000" y1="482.000000" x2="500.000000" y2="479.000000" stroke="black" stroke-width="0.5" />
<line x1="500.000000" y1="479.000000" x2="500.000000" y2="476.000000" stroke="black" stroke-width="0.5" />
<line x1="500.000000" y1="476.000000" x2="500.000000" y2="473.000000" stroke="black" stroke-width="0.5" />
<line x1="500.000000" y1="473.000000" x2="500.000000" y2="470.000000" stroke="black" stroke-width="0.5" />
<line x1="500.000000" y1="470.000000" x2="500.000000" y2="467.000000" stroke="black" stroke-width="0.5" />
<line x1="500.000000" y1="467.000000" x2="500.000000" y2="464.000000" stroke="black" stroke-width="0.5" />
<line x1="500.000000" y1="464.000000" x2="500.000000" y2="461.000000" stroke="black" stroke-width="0.5" />
<line x1="500.000000" y1="461.000000" x2="500.000000" y2="458.000000" stroke="black" stroke-width="0.5" />
<line x1="500.000000" y1="458.000000" x2="500.000000" y2="455.000000" stroke="black" stroke-width="0.5" />
<line x1="500.000000" y1="455.000000" x2="500.000000" y2="452.000000" stroke="black" stroke-width="0.5" />
<line x1="500.000000" y1="452.000000" x2="498.699023" y2="449.296769" stroke="black" stroke-width="0.5" />
<line x1="498.699023" y1="449.296769" x2="497.398045" y2="446.593538" stroke="black" stroke-width="0.5" />
<line x1="497.398045" y1="446.593538" x2="496.097068" y2="443.890307" stroke="black" stroke-width="0.5" />
<line x1="496.097068" y1="443.890307" x2="494.796091" y2="441.187076" stroke="black" stroke-width="0.5" />
<line x1="494.796091" y1="441.187076" x2="493.495114" y2="438.483845" stroke="black" stroke-width="0.5" />
<line x1="493.495114" y1="438.483845" x2="492.194136" y2="435.780614" stroke="black" stroke-width="0.5" />
<line x1="492.194136" y1="435.780614" x2="490.893159" y2="433.077383" stroke="black" stroke-width="0.5" />
<line x1="490.893159" y1="433.077383" x2="489.592182" y2="430.374151" stroke="black" stroke-width="0.5" />
<line x1="489.592182" y1="430.374151" x2="487.247621" y2="428.502513" stroke="black" stroke-width="0.5" />
<line x1="487.247621" y1="428.502513" x2="484.903059" y2="426.630874" stroke="black" stroke-width="0.5" />
<line x1="484.903059" y1="426.630874" x2="482.558498" y2="424.759235" stroke="black" stroke-width="0.5" />
<line x1="482.558498" y1="424.759235" x2="480.213936" y2="422.887596" stroke="black" stroke-width="0.5" />
<line x1="480.213936" y1="422.887596" x2="477.289653" y2="422.217846" stroke="black" stroke-width="0.5" />
<line x1="477.289653" y1="422.217846" x2="474.365369" y2="421.548096" stroke="black" stroke-width="0.5" />
<line x1="474.365369" y1="421.548096" x2="471.439921" y2="422.212741" stroke="black" stroke-width="0.5" />
<line x1="471.439921" y1="422.212741" x2="468.514473" y2="422.877387" stroke="black" stroke-width="0.5" />
<line x1="474.365369" y1="421.548096" x2="472.020808" y2="419.676457" stroke="black" stroke-width="0.5" />
<line x1="472.020808" y1="419.676457" x2="469.676246" y2="417.804818" stroke="black" stroke-width="0.5" />
<line x1="474.365369" y1="421.548096" x2="471.441086" y2="420.878345" stroke="black" stroke-width="0.5" />
<line x1="471.441086" y1="420.878345" x2="468.516802" y2="420.208595" stroke="black" stroke-width="0.5" />
<line x1="468.516802" y1="420.208595" x2="465.592518" y2="419.538845" stroke="black" stroke-width="0.5" />
<line x1="465.592518" y1="419.538845" x2="462.668235" y2="418.869094" stroke="black" stroke-width="0.5" />
<line x1="480.213936" y1="422.887596" x2="478.912959" y2="420.184365" stroke="black" stroke-width="0.5" />
<line x1="478.912959" y1="420.184365" x2="477.611982" y2="417.481134" stroke="black" stroke-width="0.5" />
<line x1="477.611982" y1="417.481134" x2="475.267420" y2="415.609495" stroke="black" stroke-width="0.5" />
<line x1="475.267420" y1="415.609495" x2="472.922859" y2="413.737857" stroke="black" stroke-width="0.5" />
<line x1="477.611982" y1="417.481134" x2="477.611982" y2="414.481134" stroke="black" stroke-width="0.5" />
<line x1="477.611982" y1="414.481134" x2="477.611982" y2="411.481134" stroke="black" stroke-width="0.5" />
<line x1="477.611982" y1="417.481134" x2="476.311005" y2="414.777903" stroke="black" stroke-width="0.5" />
<line x1="476.311005" y1="414.777903" x2="475.010027" y2="412.074672" stroke="black" stroke-width="0.5" />
<line x1="475.010027" y1="412.074672" x2="473.709050" y2="409.371441" stroke="black" stroke-width="0.5" />
<line x1="473.709050" y1="409.371441" x2="472.408073" y2="406.668210" stroke="black" stroke-width="0.5" />
<line x1="480.213936" y1="422.887596" x2="477.869375" y2="421.015958" stroke="black" stroke-width="0.5" />
<line x1="477.869375" y1="421.015958" x2="475.524813" y2="419.144319" stroke="black" stroke-width="0.5" />
<line x1="475.524813" y1="419.144319" x2="473.180252" y2="417.272680" stroke="black" stroke-width="0.5" />
<line x1="473.180252" y1="417.272680" x2="470.835691" y2="415.401041" stroke="black" stroke-width="0.5" />
<line x1="470.835691" y1="415.401041" x2="468.491129" y2="413.529402" stroke="black" stroke-width="0.5" />
<line x1="468.491129" y1="413.529402" x2="466.146568" y2="411.657764" stroke="black" stroke-width="0.5" />
<line x1="466.146568" y1="411.657764" x2="463.222284" y2="410.988013" stroke="black" stroke-width="0.5" />
<line x1="463.222284" y1="410.988013" x2="460.298001" y2="410.318263" stroke="black" stroke-width="0.5" />
<line x1="466.146568" y1="411.657764" x2="464.845591" y2="408.954533" stroke="black" stroke-width="0.5" />
<line x1="464.845591" y1="408.954533" x2="463.544613" y2="406.251301" stroke="black" stroke-width="0.5" />
<line x1="466.146568" y1="411.657764" x2="463.802006" y2="409.786125" stroke="black" stroke-width="0.5" />
<line x1="463.802006" y1="409.786125" x2="461.457445" y2="407.914486" stroke="black" stroke-width="0.5" />
<line x1="461.457445" y1="407.914486" x2="459.112884" y2="406.042847" stroke="black" stroke-width="0.5" />
<line x1="459.112884" y1="406.042847" x2="456.768322" y2="404.171208" stroke="black" stroke-width="0.5" />
<line x1="489.592182" y1="430.374151" x2="489.592182" y2="427.374151" stroke="black" stroke-width="0.5" />
<line x1="489.592182" y1="427.374151" x2="489.592182" y2="424.374151" stroke="black" stroke-width="0.5" />
<line x1="489.592182" y1="424.374151" x2="489.592182" y2="421.374151" stroke="black" stroke-width="0.5" />
<line x1="489.592182" y1="421.374151" x2="489.592182" y2="418.374151" stroke="black" stroke-width="0.5" />
<line x1="489.592182" y1="418.374151" x2="488.291205" y2="415.670920" stroke="black" stroke-width="0.5" />
<line x1="488.291205" y1="415.670920" x2="486.990227" y2="412.967689" stroke="black" stroke-width="0.5" />
<line x1="486.990227" y1="412.967689" x2="484.645666" y2="411.096051" stroke="black" stroke-width="0.5" />
<line x1="484.645666" y1="411.096051" x2="482.301105" y2="409.224412" stroke="black" stroke-width="0.5" />
<line x1="486.990227" y1="412.967689" x2="486.990227" y2="409.967689" stroke="black" stroke-width="0.5" />
<line x1="486.990227" y1="409.967689" x2="486.990227" y2="406.967689" stroke="black" stroke-width="0.5" />
<line x1="486.990227" y1="412.967689" x2="485.689250" y2="410.264458" stroke="black" stroke-width="0.5" />
<line x1="485.689250" y1="410.264458" x2="484.388273" y2="407.561227" stroke="black" stroke-width="0.5" />
<line x1="484.388273" y1="407.561227" x2="483.087296" y2="404.857996" stroke="black" stroke-width="0.5" />
<line x1="483.087296" y1="404.857996" x2="481.786318" y2="402.154765" stroke="black" stroke-width="0.5" />
<line x1="489.592182" y1="418.374151" x2="490.893159" y2="415.670920" stroke="black" stroke-width="0.5" />
<line x1="490.893159" y1="415.670920" x2="492.194136" y2="412.967689" stroke="black" stroke-width="0.5" />
<line x1="492.194136" y1="412.967689" x2="492.194136" y2="409.967689" stroke="black" stroke-width="0.5" />
<line x1="492.194136" y1="409.967689" x2="492.194136" y2="406.967689" stroke="black" stroke-width="0.5" />
<line x1="492.194136" y1="412.967689" x2="494.538698" y2="411.096051" stroke="black" stroke-width="0.5" />
<line x1="494.538698" y1="411.096051" x2="496.883259" y2="409.224412" stroke="black" stroke-width="0.5" />
<line x1="492.194136" y1="412.967689" x2="493.495114" y2="410.264458" stroke="black" stroke-width="0.5" />
<line x1="493.495114" y1="410.264458" x2="494.796091" y2="407.561227" stroke="black" stroke-width="0.5" />
<line x1="494.796091" y1="407.561227" x2="496.097068" y2="404.857996" stroke="black" stroke-width="0.5" />
<line x1="496.097068" y1="404.857996" x2="497.398045" y2="402.154765" stroke="black" stroke-width="0.5" />
<line x1="489.592182" y1="418.374151" x2="489.592182" y2="415.374151" stroke="black" stroke-width="0.5" />
<line x1="489.592182" y1="415.374151" x2="489.592182" y2="412.374151" stroke="black" stroke-width="0.5" />
<line x1="489.592182" y1="412.374151" x2="489.592182" y2="409.374151" stroke="black" stroke-width="0.5" />
<line x1="489.592182" y1="409.374151" x2="489.592182" y2="406.374151" stroke="black" stroke-width="0.5" />
<line x1="489.592182" y1="406.374151" x2="489.592182" y2="403.374151" stroke="black" stroke-width="0.5" />
<line x1="489.592182" y1="403.374151" x2="489.592182" y2="400.374151" stroke="black" stroke-width="0.5" />
<line x1="489.592182" y1="400.374151" x2="488.291205" y2="397.670920" stroke="black" stroke-width="0.5" />
<line x1="488.291205" y1="397.670920" x2="486.990227" y2="394.967689" stroke="black" stroke-width="0.5" />
<line x1="489.592182" y1="400.374151" x2="490.893159" y2="397.670920" stroke="black" stroke-width="0.5" />
<line x1="490.893159" y1="397.670920" x2="492.194136" y2="394.967689" stroke="black" stroke-width="0.5" />
<line x1="489.592182" y1="400.374151" x2="489.592182" y2="397.374151" stroke="black" stroke-width="0.5" />
<line x1="489.592182" y1="397.374151" x2="489.592182" y2="394.374151" stroke="black" stroke-width="0.5" />
<line x1="489.592182" y1="394.374151" x2="489.592182" y2="391.374151" stroke="black" stroke-width="0.5" />
<line x1="489.592182" y1="391.374151" x2="489.592182" y2="388.374151" stroke="black" stroke-width="0.5" />
<line x1="489.592182" y1="430.374151" x2="488.291205" y2="427.670920" stroke="black" stroke-width="0.5" />
<line x1="488.291205" y1="427.670920" x2="486.990227" y2="424.967689" stroke="black" stroke-width="0.5" />
<line x1="486.990227" y1="424.967689" x2="485.689250" y2="422.264458" stroke="black" stroke-width="0.5" />
<line x1="485.689250" y1="422.264458" x2="484.388273" y2="419.561227" stroke="black" stroke-width="0.5" />
<line x1="484.388273" y1="419.561227" x2="483.087296" y2="416.857996" stroke="black" stroke-width="0.5" />
<line x1="483.087296" y1="416.857996" x2="481.786318" y2="414.154765" stroke="black" stroke-width="0.5" />
<line x1="481.786318" y1="414.154765" x2="480.485341" y2="411.451534" stroke="black" stroke-width="0.5" />
<line x1="480.485341" y1="411.451534" x2="479.184364" y2="408.748303" stroke="black" stroke-width="0.5" />
<line x1="479.184364" y1="408.748303" x2="477.883387" y2="406.045072" stroke="black" stroke-width="0.5" />
<line x1="477.883387" y1="406.045072" x2="476.582409" y2="403.341841" stroke="black" stroke-width="0.5" />
<line x1="476.582409" y1="403.341841" x2="475.281432" y2="400.638610" stroke="black" stroke-width="0.5" />
<line x1="475.281432" y1="400.638610" x2="473.980455" y2="397.935379" stroke="black" stroke-width="0.5" />
<line x1="473.980455" y1="397.935379" x2="471.635894" y2="396.063740" stroke="black" stroke-width="0.5" />
<line x1="471.635894" y1="396.063740" x2="469.291332" y2="394.192101" stroke="black" stroke-width="0.5" />
<line x1="469.291332" y1="394.192101" x2="466.367049" y2="393.522351" stroke="black" stroke-width="0.5" />
<line x1="466.367049" y1="393.522351" x2="463.442765" y2="392.852600" stroke="black" stroke-width="0.5" />
<line x1="469.291332" y1="394.192101" x2="467.990355" y2="391.488870" stroke="black" stroke-width="0.5" />
<line x1="467.990355" y1="391.488870" x2="466.689378" y2="388.785639" stroke="black" stroke-width="0.5" />
<line x1="469.291332" y1="394.192101" x2="466.946771" y2="392.320462" stroke="black" stroke-width="0.5" />
<line x1="466.946771" y1="392.320462" x2="464.602209" y2="390.448824" stroke="black" stroke-width="0.5" />
<line x1="464.602209" y1="390.448824" x2="462.257648" y2="388.577185" stroke="black" stroke-width="0.5" />
<line x1="462.257648" y1="388.577185" x2="459.913086" y2="386.705546" stroke="black" stroke-width="0.5" />
<line x1="473.980455" y1="397.935379" x2="473.980455" y2="394.935379" stroke="black" stroke-width="0.5" />
<line x1="473.980455" y1="394.935379" x2="473.980455" y2="391.935379" stroke="black" stroke-width="0.5" />
<line x1="473.980455" y1="391.935379" x2="472.679478" y2="389.232148" stroke="black" stroke-width="0.5" />
<line x1="472.679478" y1="389.232148" x2="471.378500" y2="386.528917" stroke="black" stroke-width="0.5" />
<line x1="473.980455" y1="391.935379" x2="475.281432" y2="389.232148" stroke="black" stroke-width="0.5" />
<line x1="475.281432" y1="389.232148" x2="476.582409" y2="386.528917" stroke="black" stroke-width="0.5" />
<line x1="473.980455" y1="391.935379" x2="473.980455" y2="388.935379" stroke="black" stroke-width="0.5" />
<line x1="473.980455" y1="388.935379" x2="473.980455" y2="385.935379" stroke="black" stroke-width="0.5" />
<line x1="473.980455" y1="385.935379" x2="473.980455" y2="382.935379" stroke="black" stroke-width="0.5" />
<line x1="473.980455" y1="382.935379" x2="473.980455" y2="379.935379" stroke="black" stroke-width="0.5" />
<line x1="473.980455" y1="397.935379" x2="472.679478" y2="395.232148" stroke="black" stroke-width="0.5" />
<line x1="472.679478" y1="395.232148" x2="471.378500" y2="392.528917" stroke="black" stroke-width="0.5" />
<line x1="471.378500" y1="392.528917" x2="470.077523" y2="389.825686" stroke="black" stroke-width="0.5" />
<line x1="470.077523" y1="389.825686" x2="468.776546" y2="387.122454" stroke="black" stroke-width="0.5" />
<line x1="468.776546" y1="387.122454" x2="467.475569" y2="384.419223" stroke="black" stroke-width="0.5" />
<line x1="467.475569" y1="384.419223" x2="466.174591" y2="381.715992" stroke="black" stroke-width="0.5" />
<line x1="466.174591" y1="381.715992" x2="463.830030" y2="379.844354" stroke="black" stroke-width="0.5" />
<line x1="463.830030" y1="379.844354" x2="461.485469" y2="377.972715" stroke="black" stroke-width="0.5" />
<line x1="466.174591" y1="381.715992" x2="466.174591" y2="378.715992" stroke="black" stroke-width="0.5" />
<line x1="466.174591" y1="378.715992" x2="466.174591" y2="375.715992" stroke="black" stroke-width="0.5" />
<line x1="466.174591" y1="381.715992" x2="464.873614" y2="379.012761" stroke="black" stroke-width="0.5" />
<line x1="464.873614" y1="379.012761" x2="463.572637" y2="376.309530" stroke="black" stroke-width="0.5" />
<line x1="463.572637" y1="376.309530" x2="462.271660" y2="373.606299" stroke="black" stroke-width="0.5" />
<line x1="462.271660" y1="373.606299" x2="460.970682" y2="370.903068" stroke="black" stroke-width="0.5" />
<line x1="500.000000" y1="452.000000" x2="501.300977" y2="449.296769" stroke="black" stroke-width="0.5" />
<line x1="501.300977" y1="449.296769" x2="502.601955" y2="446.593538" stroke="black" stroke-width="0.5" />
<line x1="502.601955" y1="446.593538" x2="503.902932" y2="443.890307" stroke="black" stroke-width="0.5" />
<line x1="503.902932" y1="443.890307" x2="505.203909" y2="441.187076" stroke="black" stroke-width="0.5" />
<line x1="505.203909" y1="441.187076" x2="506.504886" y2="438.483845" stroke="black" stroke-width="0.5" />
<line x1="506.504886" y1="438.483845" x2="507.805864" y2="435.780614" stroke="black" stroke-width="0.5" />
<line x1="507.805864" y1="435.780614" x2="509.106841" y2="433.077383" stroke="black" stroke-width="0.5" />
<line x1="509.106841" y1="433.077383" x2="510.407818" y2="430.374151" stroke="black" stroke-width="0.5" />
<line x1="510.407818" y1="430.374151" x2="510.407818" y2="427.374151" stroke="black" stroke-width="0.5" />
<line x1="510.407818" y1="427.374151" x2="510.407818" y2="424.374151" stroke="black" stroke-width="0.5" />
<line x1="510.407818" y1="424.374151" x2="510.407818" y2="421.374151" stroke="black" stroke-width="0.5" />
<line x1="510.407818" y1="421.374151" x2="510.407818" y2="418.374151" stroke="black" stroke-width="0.5" />
<line x1="510.407818" y1="418.374151" x2="509.106841" y2="415.670920" stroke="black" stroke-width="0.5" />
<line x1="509.106841" y1="415.670920" x2="507.805864" y2="412.967689" stroke="black" stroke-width="0.5" />
<line x1="507.805864" y1="412.967689" x2="505.461302" y2="411.096051" stroke="black" stroke-width="0.5" />
<line x1="505.461302" y1="411.096051" x2="503.116741" y2="409.224412" stroke="black" stroke-width="0.5" />
<line x1="507.805864" y1="412.967689" x2="507.805864" y2="409.967689" stroke="black" stroke-width="0.5" />
<line x1="507.805864" y1="409.967689" x2="507.805864" y2="406.967689" stroke="black" stroke-width="0.5" />
<line x1="507.805864" y1="412.967689" x2="506.504886" y2="410.264458" stroke="black" stroke-width="0.5" />
<line x1="506.504886" y1="410.264458" x2="505.203909" y2="407.561227" stroke="black" stroke-width="0.5" />
<line x1="505.203909" y1="407.561227" x2="503.902932" y2="404.857996" stroke="black" stroke-width="0.5" />
<line x1="503.902932" y1="404.857996" x2="502.601955" y2="402.154765" stroke="black" stroke-width="0.5" />
<line x1="510.407818" y1="418.374151" x2="511.708795" y2="415.670920" stroke="black" stroke-width="0.5" />
<line x1="511.708795" y1="415.670920" x2="513.009773" y2="412.967689" stroke="black" stroke-width="0.5" />
<line x1="513.009773" y1="412.967689" x2="513.009773" y2="409.967689" stroke="black" stroke-width="0.5" />
<line x1="513.009773" y1="409.967689" x2="513.009773" y2="406.967689" stroke="black" stroke-width="0.5" />
<line x1="513.009773" y1="412.967689" x2="515.354334" y2="411.096051" stroke="black" stroke-width="0.5" />
<line x1="515.354334" y1="411.096051" x2="517.698895" y2="409.224412" stroke="black" stroke-width="0.5" />
<line x1="513.009773" y1="412.967689" x2="514.310750" y2="410.264458" stroke="black" stroke-width="0.5" />
<line x1="514.310750" y1="410.264458" x2="515.611727" y2="407.561227" stroke="black" stroke-width="0.5" />
<line x1="515.611727" y1="407.561227" x2="516.912704" y2="404.857996" stroke="black" stroke-width="0.5" />
<line x1="516.912704" y1="404.857996" x2="518.213682" y2="402.154765" stroke="black" stroke-width="0.5" />
<line x1="510.407818" y1="418.374151" x2="510.407818" y2="415.374151" stroke="black" stroke-width="0.5" />
<line x1="510.407818" y1="415.374151" x2="510.407818" y2="412.374151" stroke="black" stroke-width="0.5" />
<line x1="510.407818" y1="412.374151" x2="510.407818" y2="409.374151" stroke="black" stroke-width="0.5" />
<line x1="510.407818" y1="409.374151" x2="510.407818" y2="406.374151" stroke="black" stroke-width="0.5" />
<line x1="510.407818" y1="406.374151" x2="510.407818" y2="403.374151" stroke="black" stroke-width="0.5" />
<line x1="510.407818" y1="403.374151" x2="510.407818" y2="400.374151" stroke="black" stroke-width="0.5" />
<line x1="510.407818" y1="400.374151" x2="509.106841" y2="397.670920" stroke="black" stroke-width="0.5" />
<line x1="509.106841" y1="397.670920" x2="507.805864" y2="394.967689" stroke="black" stroke-width="0.5" />
<line x1="510.407818" y1="400.374151" x2="511.708795" y2="397.670920" stroke="black" stroke-width="0.5" />
<line x1="511.708795" y1="397.670920" x2="513.009773" y2="394.967689" stroke="black" stroke-width="0.5" />
<line x1="510.407818" y1="400.374151" x2="510.407818" y2="397.374151" stroke="black" stroke-width="0.5" />
<line x1="510.407818" y1="397.374151" x2="510.407818" y2="394.374151" stroke="black" stroke-width="0.5" />
<line x1="510.407818" y1="394.374151" x2="510.407818" y2="391.374151" stroke="black" stroke-width="0.5" />
<line x1="510.407818" y1="391.374151" x2="510.407818" y2="388.374151" stroke="black" stroke-width="0.5" />
<line x1="510.407818" y1="430.374151" x2="512.752379" y2="428.502513" stroke="black" stroke-width="0.5" />
<line x1="512.752379" y1="428.502513" x2="515.096941" y2="426.630874" stroke="black" stroke-width="0.5" />
<line x1="515.096941" y1="426.630874" x2="517.441502" y2="424.759235" stroke="black" stroke-width="0.5" />
<line x1="517.441502" y1="424.759235" x2="519.786064" y2="422.887596" stroke="black" stroke-width="0.5" />
<line x1="519.786064" y1="422.887596" x2="521.087041" y2="420.184365" stroke="black" stroke-width="0.5" />
<line x1="521.087041" y1="420.184365" x2="522.388018" y2="417.481134" stroke="black" stroke-width="0.5" />
<line x1="522.388018" y1="417.481134" x2="522.388018" y2="414.481134" stroke="black" stroke-width="0.5" />
<line x1="522.388018" y1="414.481134" x2="522.388018" y2="411.481134" stroke="black" stroke-width="0.5" />
<line x1="522.388018" y1="417.481134" x2="524.732580" y2="415.609495" stroke="black" stroke-width="0.5" />
<line x1="524.732580" y1="415.609495" x2="527.077141" y2="413.737857" stroke="black" stroke-width="0.5" />
<line x1="522.388018" y1="417.481134" x2="523.688995" y2="414.777903" stroke="black" stroke-width="0.5" />
<line x1="523.688995" y1="414.777903" x2="524.989973" y2="412.074672" stroke="black" stroke-width="0.5" />
<line x1="524.989973" y1="412.074672" x2="526.290950" y2="409.371441" stroke="black" stroke-width="0.5" />
<line x1="526.290950" y1="409.371441" x2="527.591927" y2="406.668210" stroke="black" stroke-width="0.5" />
<line x1="519.786064" y1="422.887596" x2="522.710347" y2="422.217846" stroke="black" stroke-width="0.5" />
<line x1="522.710347" y1="422.217846" x2="525.634631" y2="421.548096" stroke="black" stroke-width="0.5" />
<line x1="525.634631" y1="421.548096" x2="527.979192" y2="419.676457" stroke="black" stroke-width="0.5" />
<line x1="527.979192" y1="419.676457" x2="530.323754" y2="417.804818" stroke="black" stroke-width="0.5" />
<line x1="525.634631" y1="421.548096" x2="528.560079" y2="422.212741" stroke="black" stroke-width="0.5" />
<line x1="528.560079" y1="422.212741" x2="531.485527" y2="422.877387" stroke="black" stroke-width="0.5" />
<line x1="525.634631" y1="421.548096" x2="528.558914" y2="420.878345" stroke="black" stroke-width="0.5" />
<line x1="528.558914" y1="420.878345" x2="531.483198" y2="420.208595" stroke="black" stroke-width="0.5" />
<line x1="531.483198" y1="420.208595" x2="534.407482" y2="419.538845" stroke="black" stroke-width="0.5" />
<line x1="534.407482" y1="419.538845" x2="537.331765" y2="418.869094" stroke="black" stroke-width="0.5" />
<line x1="519.786064" y1="422.887596" x2="522.130625" y2="421.015958" stroke="black" stroke-width="0.5" />
<line x1="522.130625" y1="421.015958" x2="524.475187" y2="419.144319" stroke="black" stroke-width="0.5" />
<line x1="524.475187" y1="419.144319" x2="526.819748" y2="417.272680" stroke="black" stroke-width="0.5" />
<line x1="526.819748" y1="417.272680" x2="529.164309" y2="415.401041" stroke="black" stroke-width="0.5" />
<line x1="529.164309" y1="415.401041" x2="531.508871" y2="413.529402" stroke="black" stroke-width="0.5" />
<line x1="531.508871" y1="413.529402" x2="533.853432" y2="411.657764" stroke="black" stroke-width="0.5" />
<line x1="533.853432" y1="411.657764" x2="535.154409" y2="408.954533" stroke="black" stroke-width="0.5" />
<line x1="535.154409" y1="408.954533" x2="536.455387" y2="406.251301" stroke="black" stroke-width="0.5" />
<line x1="533.853432" y1="411.657764" x2="536.777716" y2="410.988013" stroke="black" stroke-width="0.5" />
<line x1="536.777716" y1="410.988013" x2="539.701999" y2="410.318263" stroke="black" stroke-width="0.5" />
<line x1="533.853432" y1="411.657764" x2="536.197994" y2="409.786125" stroke="black" stroke-width="0.5" />
<line x1="536.197994" y1="409.786125" x2="538.542555" y2="407.914486" stroke="black" stroke-width="0.5" />
<line x1="538.542555" y1="407.914486" x2="540.887116" y2="406.042847" stroke="black" stroke-width="0.5" />
<line x1="540.887116" y1="406.042847" x2="543.231678" y2="404.171208" stroke="black" stroke-width="0.5" />
<line x1="510.407818" y1="430.374151" x2="511.708795" y2="427.670920" stroke="black" stroke-width="0.5" />
<line x1="511.708795" y1="427.670920" x2="513.009773" y2="424.967689" stroke="black" stroke-width="0.5" />
<line x1="513.009773" y1="424.967689" x2="514.310750" y2="422.264458" stroke="black" stroke-width="0.5" />
<line x1="514.310750" y1="422.264458" x2="515.611727" y2="419.561227" stroke="black" stroke-width="0.5" />
<line x1="515.611727" y1="419.561227" x2="516.912704" y2="416.857996" stroke="black" stroke-width="0.5" />
<line x1="516.912704" y1="416.857996" x2="518.213682" y2="414.154765" stroke="black" stroke-width="0.5" />
<line x1="518.213682" y1="414.154765" x2="519.514659" y2="411.451534" stroke="black" stroke-width="0.5" />
<line x1="519.514659" y1="411.451534" x2="520.815636" y2="408.748303" stroke="black" stroke-width="0.5" />
<line x1="520.815636" y1="408.748303" x2="522.116613" y2="406.045072" stroke="black" stroke-width="0.5" />
<line x1="522.116613" y1="406.045072" x2="523.417591" y2="403.341841" stroke="black" stroke-width="0.5" />
<line x1="523.417591" y1="403.341841" x2="524.718568" y2="400.638610" stroke="black" stroke-width="0.5" />
<line x1="524.718568" y1="400.638610" x2="526.019545" y2="397.935379" stroke="black" stroke-width="0.5" />
<line x1="526.019545" y1="397.935379" x2="526.019545" y2="394.935379" stroke="black" stroke-width="0.5" />
<line x1="526.019545" y1="394.935379" x2="526.019545" y2="391.935379" stroke="black" stroke-width="0.5" />
<line x1="526.019545" y1="391.935379" x2="524.718568" y2="389.232148" stroke="black" stroke-width="0.5" />
<line x1="524.718568" y1="389.232148" x2="523.417591" y2="386.528917" stroke="black" stroke-width="0.5" />
<line x1="526.019545" y1="391.935379" x2="527.320522" y2="389.232148" stroke="black" stroke-width="0.5" />
<line x1="527.320522" y1="389.232148" x2="528.621500" y2="386.528917" stroke="black" stroke-width="0.5" />
<line x1="526.019545" y1="391.935379" x2="526.019545" y2="388.935379" stroke="black" stroke-width="0.5" />
<line x1="526.019545" y1="388.935379" x2="526.019545" y2="385.935379" stroke="black" stroke-width="0.5" />
<line x1="526.019545" y1="385.935379" x2="526.019545" y2="382.935379" stroke="black" stroke-width="0.5" />
<line x1="526.019545" y1="382.935379" x2="526.019545" y2="379.935379" stroke="black" stroke-width="0.5" />
<line x1="526.019545" y1="397.935379" x2="528.364106" y2="396.063740" stroke="black" stroke-width="0.5" />
<line x1="528.364106" y1="396.063740" x2="530.708668" y2="394.192101" stroke="black" stroke-width="0.5" />
<line x1="530.708668" y1="394.192101" x2="532.009645" y2="391.488870" stroke="black" stroke-width="0.5" />
<line x1="532.009645" y1="391.488870" x2="533.310622" y2="388.785639" stroke="black" stroke-width="0.5" />
<line x1="530.708668" y1="394.192101" x2="533.632951" y2="393.522351" stroke="black" stroke-width="0.5" />
<line x1="533.632951" y1="393.522351" x2="536.557235" y2="392.852600" stroke="black" stroke-width="0.5" />
<line x1="530.708668" y1="394.192101" x2="533.053229" y2="392.320462" stroke="black" stroke-width="0.5" />
<line x1="533.053229" y1="392.320462" x2="535.397791" y2="390.448824" stroke="black" stroke-width="0.5" />
<line x1="535.397791" y1="390.448824" x2="537.742352" y2="388.577185" stroke="black" stroke-width="0.5" />
<line x1="537.742352" y1="388.577185" x2="540.086914" y2="386.705546" stroke="black" stroke-width="0.5" />
<line x1="526.019545" y1="397.935379" x2="527.320522" y2="395.232148" stroke="black" stroke-width="0.5" />
<line x1="527.320522" y1="395.232148" x2="528.621500" y2="392.528917" stroke="black" stroke-width="0.5" />
<line x1="528.621500" y1="392.528917" x2="529.922477" y2="389.825686" stroke="black" stroke-width="0.5" />
<line x1="529.922477" y1="389.825686" x2="531.223454" y2="387.122454" stroke="black" stroke-width="0.5" />
<line x1="531.223454" y1="387.122454" x2="532.524431" y2="384.419223" stroke="black" stroke-width="0.5" />
<line x1="532.524431" y1="384.419223" x2="533.825409" y2="381.715992" stroke="black" stroke-width="0.5" />
<line x1="533.825409" y1="381.715992" x2="533.825409" y2="378.715992" stroke="black" stroke-width="0.5" />
<line x1="533.825409" y1="378.715992" x2="533.825409" y2="375.715992" stroke="black" stroke-width="0.5" />
<line x1="533.825409" y1="381.715992" x2="536.169970" y2="379.844354" stroke="black" stroke-width="0.5" />
<line x1="536.169970" y1="379.844354" x2="538.514531" y2="377.972715" stroke="black" stroke-width="0.5" />
<line x1="533.825409" y1="381.715992" x2="535.126386" y2="379.012761" stroke="black" stroke-width="0.5" />
<line x1="535.126386" y1="379.012761" x2="536.427363" y2="376.309530" stroke="black" stroke-width="0.5" />
<line x1="536.427363" y1="376.309530" x2="537.728340" y2="373.606299" stroke="black" stroke-width="0.5" />
<line x1="537.728340" y1="373.606299" x2="539.029318" y2="370.903068" stroke="black" stroke-width="0.5" />
<line x1="500.000000" y1="452.000000" x2="500.000000" y2="449.000000" stroke="black" stroke-width="0.5" />
<line x1="500.000000" y1="449.000000" x2="500.000000" y2="446.000000" stroke="black" stroke-width="0.5" />
<line x1="500.000000" y1="446.000000" x2="500.000000" y2="443.000000" stroke="black" stroke-width="0.5" />
<line x1="500.000000" y1="443.000000" x2="500.000000" y2="440.000000" stroke="black" stroke-width="0.5" />
<line x1="500.000000" y1="440.000000" x2="500.000000" y2="437.000000" stroke="black" stroke-width="0.5" />
<line x1="500.000000" y1="437.000000" x2="500.000000" y2="434.000000" stroke="black" stroke-width="0.5" />
<line x1="500.000000" y1="434.000000" x2="500.000000" y2="431.000000" stroke="black" stroke-width="0.5" />
<line x1="500.000000" y1="431.000000" x2="500.000000" y2="428.000000" stroke="black" stroke-width="0.5" />
<line x1="500.000000" y1="428.000000" x2="500.000000" y2="425.000000" stroke="black" stroke-width="0.5" />
<line x1="500.000000" y1="425.000000" x2="500.000000" y2="422.000000" stroke="black" stroke-width="0.5" />
<line x1="500.000000" y1="422.000000" x2="500.000000" y2="419.000000" stroke="black" stroke-width="0.5" />
<line x1="500.000000" y1="419.000000" x2="500.000000" y2="416.000000" stroke="black" stroke-width="0.5" />
<line x1="500.000000" y1="416.000000" x2="500.000000" y2="413.000000" stroke="black" stroke-width="0.5" />
<line x1="500.000000" y1="413.000000" x2="500.000000" y2="410.000000" stroke="black" stroke-width="0.5" />
<line x1="500.000000" y1="410.000000" x2="500.000000" y2="407.000000" stroke="black" stroke-width="0.5" />
<line x1="500.000000" y1="407.000000" x2="500.000000" y2="404.000000" stroke="black" stroke-width="0.5" />
<line x1="500.000000" y1="404.000000" x2="500.000000" y2="401.000000" stroke="black" stroke-width="0.5" />
<line x1="500.000000" y1="401.000000" x2="500.000000" y2="398.000000" stroke="black" stroke-width="0.5" />
<line x1="500.000000" y1="398.000000" x2="500.000000" y2="395.000000" stroke="black" stroke-width="0.5" />
<line x1="500.000000" y1="395.000000" x2="500.000000" y2="392.000000" stroke="black" stroke-width="0.5" />
<line x1="500.000000" y1="392.000000" x2="500.000000" y2="389.000000" stroke="black" stroke-width="0.5" />
<line x1="500.000000" y1="389.000000" x2="500.000000" y2="386.000000" stroke="black" stroke-width="0.5" />
<line x1="500.000000" y1="386.000000" x2="500.000000" y2="383.000000" stroke="black" stroke-width="0.5" />
<line x1="500.000000" y1="383.000000" x2="500.000000" y2="380.000000" stroke="black" stroke-width="0.5" />
<line x1="500.000000" y1="380.000000" x2="498.699023" y2="377.296769" stroke="black" stroke-width="0.5" />
<line x1="498.699023" y1="377.296769" x2="497.398045" y2="374.593538" stroke="black" stroke-width="0.5" />
<line x1="497.398045" y1="374.593538" x2="496.097068" y2="371.890307" stroke="black" stroke-width="0.5" />
<line x1="496.097068" y1="371.890307" x2="494.796091" y2="369.187076" stroke="black" stroke-width="0.5" />
<line x1="494.796091" y1="369.187076" x2="492.451530" y2="367.315437" stroke="black" stroke-width="0.5" />
<line x1="492.451530" y1="367.315437" x2="490.106968" y2="365.443798" stroke="black" stroke-width="0.5" />
<line x1="490.106968" y1="365.443798" x2="487.182685" y2="364.774048" stroke="black" stroke-width="0.5" />
<line x1="487.182685" y1="364.774048" x2="484.258401" y2="364.104297" stroke="black" stroke-width="0.5" />
<line x1="490.106968" y1="365.443798" x2="488.805991" y2="362.740567" stroke="black" stroke-width="0.5" />
<line x1="488.805991" y1="362.740567" x2="487.505014" y2="360.037336" stroke="black" stroke-width="0.5" />
<line x1="490.106968" y1="365.443798" x2="487.762407" y2="363.572159" stroke="black" stroke-width="0.5" />
<line x1="487.762407" y1="363.572159" x2="485.417845" y2="361.700521" stroke="black" stroke-width="0.5" />
<line x1="485.417845" y1="361.700521" x2="483.073284" y2="359.828882" stroke="black" stroke-width="0.5" />
<line x1="483.073284" y1="359.828882" x2="480.728722" y2="357.957243" stroke="black" stroke-width="0.5" />
<line x1="494.796091" y1="369.187076" x2="494.796091" y2="366.187076" stroke="black" stroke-width="0.5" />
<line x1="494.796091" y1="366.187076" x2="494.796091" y2="363.187076" stroke="black" stroke-width="0.5" />
<line x1="494.796091" y1="363.187076" x2="493.495114" y2="360.483845" stroke="black" stroke-width="0.5" />
<line x1="493.495114" y1="360.483845" x2="492.194136" y2="357.780614" stroke="black" stroke-width="0.5" />
<line x1="494.796091" y1="363.187076" x2="496.097068" y2="360.483845" stroke="black" stroke-width="0.5" />
<line x1="496.097068" y1="360.483845" x2="497.398045" y2="357.780614" stroke="black" stroke-width="0.5" />
<line x1="494.796091" y1="363.187076" x2="494.796091" y2="360.187076" stroke="black" stroke-width="0.5" />
<line x1="494.796091" y1="360.187076" x2="494.796091" y2="357.187076" stroke="black" stroke-width="0.5" />
<line x1="494.796091" y1="357.187076" x2="494.796091" y2="354.187076" stroke="black" stroke-width="0.5" />
<line x1="494.796091" y1="354.187076" x2="494.796091" y2="351.187076" stroke="black" stroke-width="0.5" />
<line x1="494.796091" y1="369.187076" x2="493.495114" y2="366.483845" stroke="black" stroke-width="0.5" />
<line x1="493.495114" y1="366.483845" x2="492.194136" y2="363.780614" stroke="black" stroke-width="0.5" />
<line x1="492.194136" y1="363.780614" x2="490.893159" y2="361.077383" stroke="black" stroke-width="0.5" />
<line x1="490.893159" y1="361.077383" x2="489.592182" y2="358.374151" stroke="black" stroke-width="0.5" />
<line x1="489.592182" y1="358.374151" x2="488.291205" y2="355.670920" stroke="black" stroke-width="0.5" />
<line x1="488.291205" y1="355.670920" x2="486.990227" y2="352.967689" stroke="black" stroke-width="0.5" />
<line x1="486.990227" y1="352.967689" x2="484.645666" y2="351.096051" stroke="black" stroke-width="0.5" />
<line x1="484.645666" y1="351.096051" x2="482.301105" y2="349.224412" stroke="black" stroke-width="0.5" />
<line x1="486.990227" y1="352.967689" x2="486.990227" y2="349.967689" stroke="black" stroke-width="0.5" />
<line x1="486.990227" y1="349.967689" x2="486.990227" y2="346.967689" stroke="black" stroke-width="0.5" />
<line x1="486.990227" y1="352.967689" x2="485.689250" y2="350.264458" stroke="black" stroke-width="0.5" />
<line x1="485.689250" y1="350.264458" x2="484.388273" y2="347.561227" stroke="black" stroke-width="0.5" />
<line x1="484.388273" y1="347.561227" x2="483.087296" y2="344.857996" stroke="black" stroke-width="0.5" />
<line x1="483.087296" y1="344.857996" x2="481.786318" y2="342.154765" stroke="black" stroke-width="0.5" />
<line x1="500.000000" y1="380.000000" x2="501.300977" y2="377.296769" stroke="black" stroke-width="0.5" />
<line x1="501.300977" y1="377.296769" x2="502.601955" y2="374.593538" stroke="black" stroke-width="0.5" />
<line x1="502.601955" y1="374.593538" x2="503.902932" y2="371.890307" stroke="black" stroke-width="0.5" />
<line x1="503.902932" y1="371.890307" x2="505.203909" y2="369.187076" stroke="black" stroke-width="0.5" />
<line x1="505.203909" y1="369.187076" x2="505.203909" y2="366.187076" stroke="black" stroke-width="0.5" />
<line x1="505.203909" y1="366.187076" x2="505.203909" y2="363.187076" stroke="black" stroke-width="0.5" />
<line x1="505.203909" y1="363.187076" x2="503.902932" y2="360.483845" stroke="black" stroke-width="0.5" />
<line x1="503.902932" y1="360.483845" x2="502.601955" y2="357.780614" stroke="black" stroke-width="0.5" />
<line x1="505.203909" y1="363.187076" x2="506.504886" y2="360.483845" stroke="black" stroke-width="0.5" />
<line x1="506.504886" y1="360.483845" x2="507.805864" y2="357.780614" stroke="black" stroke-width="0.5" />
<line x1="505.203909" y1="363.187076" x2="505.203909" y2="360.187076" stroke="black" stroke-width="0.5" />
<line x1="505.203909" y1="360.187076" x2="505.203909" y2="357.187076" stroke="black" stroke-width="0.5" />
<line x1="505.203909" y1="357.187076" x2="505.203909" y2="354.187076" stroke="black" stroke-width="0.5" />
<line x1="505.203909" y1="354.187076" x2="505.203909" y2="351.187076" stroke="black" stroke-width="0.5" />
<line x1="505.203909" y1="369.187076" x2="507.548470" y2="367.315437" stroke="black" stroke-width="0.5" />
<line x1="507.548470" y1="367.315437" x2="509.893032" y2="365.443798" stroke="black" stroke-width="0.5" />
<line x1="509.893032" y1="365.443798" x2="511.194009" y2="362.740567" stroke="black" stroke-width="0.5" />
<line x1="511.194009" y1="362.740567" x2="512.494986" y2="360.037336" stroke="black" stroke-width="0.5" />
<line x1="509.893032" y1="365.443798" x2="512.817315" y2="364.774048" stroke="black" stroke-width="0.5" />
<line x1="512.817315" y1="364.774048" x2="515.741599" y2="364.104297" stroke="black" stroke-width="0.5" />
<line x1="509.893032" y1="365.443798" x2="512.237593" y2="363.572159" stroke="black" stroke-width="0.5" />
<line x1="512.237593" y1="363.572159" x2="514.582155" y2="361.700521" stroke="black" stroke-width="0.5" />
<line x1="514.582155" y1="361.700521" x2="516.926716" y2="359.828882" stroke="black" stroke-width="0.5" />
<line x1="516.926716" y1="359.828882" x2="519.271278" y2="357.957243" stroke="black" stroke-width="0.5" />
<line x1="505.203909" y1="369.187076" x2="506.504886" y2="366.483845" stroke="black" stroke-width="0.5" />
<line x1="506.504886" y1="366.483845" x2="507.805864" y2="363.780614" stroke="black" stroke-width="0.5" />
<line x1="507.805864" y1="363.780614" x2="509.106841" y2="361.077383" stroke="black" stroke-width="0.5" />
<line x1="509.106841" y1="361.077383" x2="510.407818" y2="358.374151" stroke="black" stroke-width="0.5" />
<line x1="510.407818" y1="358.374151" x2="511.708795" y2="355.670920" stroke="black" stroke-width="0.5" />
<line x1="511.708795" y1="355.670920" x2="513.009773" y2="352.967689" stroke="black" stroke-width="0.5" />
<line x1="513.009773" y1="352.967689" x2="513.009773" y2="349.967689" stroke="black" stroke-width="0.5" />
<line x1="513.009773" y1="349.967689" x2="513.009773" y2="346.967689" stroke="black" stroke-width="0.5" />
<line x1="513.009773" y1="352.967689" x2="515.354334" y2="351.096051" stroke="black" stroke-width="0.5" />
<line x1="515.354334" y1="351.096051" x2="517.698895" y2="349.224412" stroke="black" stroke-width="0.5" />
<line x1="513.009773" y1="352.967689" x2="514.310750" y2="350.264458" stroke="black" stroke-width="0.5" />
<line x1="514.310750" y1="350.264458" x2="515.611727" y2="347.561227" stroke="black" stroke-width="0.5" />
<line x1="515.611727" y1="347.561227" x2="516.912704" y2="344.857996" stroke="black" stroke-width="0.5" />
<line x1="516.912704" y1="344.857996" x2="518.213682" y2="342.154765" stroke="black" stroke-width="0.5" />
<line x1="500.000000" y1="380.000000" x2="500.000000" y2="377.000000" stroke="black" stroke-width="0.5" />
<line x1="500.000000" y1="377.000000" x2="500.000000" y2="374.000000" stroke="black" stroke-width="0.5" />
<line x1="500.000000" y1="374.000000" x2="500.000000" y2="371.000000" stroke="black" stroke-width="0.5" />
<line x1="500.000000" y1="371.000000" x2="500.000000" y2="368.000000" stroke="black" stroke-width="0.5" />
<line x1="500.000000" y1="368.000000" x2="500.000000" y2="365.000000" stroke="black" stroke-width="0.5" />
<line x1="500.000000" y1="365.000000" x2="500.000000" y2="362.000000" stroke="black" stroke-width="0.5" />
<line x1="500.000000" y1="362.000000" x2="500.000000" y2="359.000000" stroke="black" stroke-width="0.5" />
<line x1="500.000000" y1="359.000000" x2="500.000000" y2="356.000000" stroke="black" stroke-width="0.5" />
<line x1="500.000000" y1="356.000000" x2="500.000000" y2="353.000000" stroke="black" stroke-width="0.5" />
<line x1="500.000000" y1="353.000000" x2="500.000000" y2="350.000000" stroke="black" stroke-width="0.5" />
<line x1="500.000000" y1="350.000000" x2="500.000000" y2="347.000000" stroke="black" stroke-width="0.5" />
<line x1="500.000000" y1="347.000000" x2="500.000000" y2="344.000000" stroke="black" stroke-width="0.5" />
<line x1="500.000000" y1="344.000000" x2="498.699023" y2="341.296769" stroke="black" stroke-width="0.5" />
<line x1="498.699023" y1="341.296769" x2="497.398045" y2="338.593538" stroke="black" stroke-width="0.5" />
<line x1="497.398045" y1="338.593538" x2="495.053484" y2="336.721899" stroke="black" stroke-width="0.5" />
<line x1="495.053484" y1="336.721899" x2="492.708923" y2="334.850260" stroke="black" stroke-width="0.5" />
<line x1="497.398045" y1="338.593538" x2="497.398045" y2="335.593538" stroke="black" stroke-width="0.5" />
<line x1="497.398045" y1="335.593538" x2="497.398045" y2="332.593538" stroke="black" stroke-width="0.5" />
<line x1="497.398045" y1="338.593538" x2="496.097068" y2="335.890307" stroke="black" stroke-width="0.5" />
<line x1="496.097068" y1="335.890307" x2="494.796091" y2="333.187076" stroke="black" stroke-width="0.5" />
<line x1="494.796091" y1="333.187076" x2="493.495114" y2="330.483845" stroke="black" stroke-width="0.5" />
<line x1="493.495114" y1="330.483845" x2="492.194136" y2="327.780614" stroke="black" stroke-width="0.5" />
<line x1="500.000000" y1="344.000000" x2="501.300977" y2="341.296769" stroke="black" stroke-width="0.5" />
<line x1="501.300977" y1="341.296769" x2="502.601955" y2="338.593538" stroke="black" stroke-width="0.5" />
<line x1="502.601955" y1="338.593538" x2="502.601955" y2="335.593538" stroke="black" stroke-width="0.5" />
<line x1="502.601955" y1="335.593538" x2="502.601955" y2="332.593538" stroke="black" stroke-width="0.5" />
<line x1="502.601955" y1="338.593538" x2="504.946516" y2="336.721899" stroke="black" stroke-width="0.5" />
<line x1="504.946516" y1="336.721899" x2="507.291077" y2="334.850260" stroke="black" stroke-width="0.5" />
<line x1="502.601955" y1="338.593538" x2="503.902932" y2="335.890307" stroke="black" stroke-width="0.5" />
<line x1="503.902932" y1="335.890307" x2="505.203909" y2="333.187076" stroke="black" stroke-width="0.5" />
<line x1="505.203909" y1="333.187076" x2="506.504886" y2="330.483845" stroke="black" stroke-width="0.5" />
<line x1="506.504886" y1="330.483845" x2="507.805864" y2="327.780614" stroke="black" stroke-width="0.5" />
<line x1="500.000000" y1="344.000000" x2="500.000000" y2="341.000000" stroke="black" stroke-width="0.5" />
<line x1="500.000000" y1="341.000000" x2="500.000000" y2="338.000000" stroke="black" stroke-width="0.5" />
<line x1="500.000000" y1="338.000000" x2="500.000000" y2="335.000000" stroke="black" stroke-width="0.5" />
<line x1="500.000000" y1="335.000000" x2="500.000000" y2="332.000000" stroke="black" stroke-width="0.5" />
<line x1="500.000000" y1="332.000000" x2="500.000000" y2="329.000000" stroke="black" stroke-width="0.5" />
<line x1="500.000000" y1="329.000000" x2="500.000000" y2="326.000000" stroke="black" stroke-width="0.5" />
<line x1="500.000000" y1="326.000000" x2="498.699023" y2="323.296769" stroke="black" stroke-width="0.5" />
<line x1="498.699023" y1="323.296769" x2="497.398045" y2="320.593538" stroke="black" stroke-width="0.5" />
<line x1="500.000000" y1="326.000000" x2="501.300977" y2="323.296769" stroke="black" stroke-width="0.5" />
<line x1="501.300977" y1="323.296769" x2="502.601955" y2="320.593538" stroke="black" stroke-width="0.5" />
<line x1="500.000000" y1="326.000000" x2="500.000000" y2="323.000000" stroke="black" stroke-width="0.5" />
<line x1="500.000000" y1="323.000000" x2="500.000000" y2="320.000000" stroke="black" stroke-width="0.5" />
<line x1="500.000000" y1="320.000000" x2="500.000000" y2="317.000000" stroke="black" stroke-width="0.5" />
<line x1="500.000000" y1="317.000000" x2="500.000000" y2="314.000000" stroke="black" stroke-width="0.5" />
</svg>
