<?xml version="1.0" standalone="no"?>
<svg xmlns="http://www.w3.org/2000/svg" version="1.1" width="1200" height="1200" viewBox="474.000000 477.000000 61.000000 58.000000">
<line x1="500.000000" y1="500.000000" x2="500.000000" y2="497.000000" stroke="black" stroke-width="0.5" />
<line x1="500.000000" y1="497.000000" x2="497.000000" y2="497.000000" stroke="black" stroke-width="0.5" />
<line x1="497.000000" y1="497.000000" x2="497.000000" y2="500.000000" stroke="black" stroke-width="0.5" />
<line x1="497.000000" y1="500.000000" x2="494.000000" y2="500.000000" stroke="black" stroke-width="0.5" />
<line x1="494.000000" y1="500.000000" x2="494.000000" y2="503.000000" stroke="black" stroke-width="0.5" />
<line x1="494.000000" y1="503.000000" x2="497.000000" y2="503.000000" stroke="black" stroke-width="0.5" />
<line x1="497.000000" y1="503.000000" x2="497.000000" y2="506.000000" stroke="black" stroke-width="0.5" />
<line x1="497.000000" y1="506.000000" x2="494.000000" y2="506.000000" stroke="black" stroke-width="0.5" />
<line x1="494.000000" y1="506.000000" x2="494.000000" y2="509.000000" stroke="black" stroke-width="0.5" />
<line x1="494.000000" y1="509.000000" x2="497.000000" y2="509.000000" stroke="black" stroke-width="0.5" />
<line x1="497.000000" y1="509.000000" x2="497.000000" y2="506.000000" stroke="black" stroke-width="0.5" />
<line x1="497.000000" y1="506.000000" x2="500.000000" y2="506.000000" stroke="black" stroke-width="0.5" />
<line x1="500.000000" y1="506.000000" x2="500.000000" y2="509.000000" stroke="black" stroke-width="0.5" />
<line x1="500.000000" y1="509.000000" x2="503.000000" y2="509.000000" stroke="black" stroke-width="0.5" />
<line x1="503.000000" y1="509.000000" x2="503.000000" y2="512.000000" stroke="black" stroke-width="0.5" />
<line x1="503.000000" y1="512.000000" x2="500.000000" y2="512.000000" stroke="black" stroke-width="0.5" />
<line x1="500.000000" y1="512.000000" x2="500.000000" y2="515.000000" stroke="black" stroke-width="0.5" />
<line x1="500.000000" y1="515.000000" x2="503.000000" y2="515.000000" stroke="black" stroke-width="0.5" />
<line x1="503.000000" y1="515.000000" x2="503.000000" y2="512.000000" stroke="black" stroke-width="0.5" />
<line x1="503.000000" y1="512.000000" x2="506.000000" y2="512.000000" stroke="black" stroke-width="0.5" />
<line x1="506.000000" y1="512.000000" x2="506.000000" y2="509.000000" stroke="black" stroke-width="0.5" />
<line x1="506.000000" y1="509.000000" x2="503.000000" y2="509.000000" stroke="black" stroke-width="0.5" />
<line x1="503.000000" y1="509.000000" x2="503.000000" y2="506.000000" stroke="black" stroke-width="0.5" />
<line x1="503.000000" y1="506.000000" x2="506.000000" y2="506.000000" stroke="black" stroke-width="0.5" />
<line x1="506.000000" y1="506.000000" x2="506.000000" y2="509.000000" stroke="black" stroke-width="0.5" />
<line x1="506.000000" y1="509.000000" x2="509.000000" y2="509.000000" stroke="black" stroke-width="0.5" />
<line x1="509.000000" y1="509.000000" x2="509.000000" y2="506.000000" stroke="black" stroke-width="0.5" />
<line x1="509.000000" y1="506.000000" x2="512.000000" y2="506.000000" stroke="black" stroke-width="0.5" />
<line x1="512.000000" y1="506.000000" x2="512.000000" y2="509.000000" stroke="black" stroke-width="0.5" />
<line x1="512.000000" y1="509.000000" x2="515.000000" y2="509.000000" stroke="black" stroke-width="0.5" />
<line x1="515.000000" y1="509.000000" x2="515.000000" y2="512.000000" stroke="black" stroke-width="0.5" />
<line x1="515.000000" y1="512.000000" x2="512.000000" y2="512.000000" stroke="black" stroke-width="0.5" />
</svg>
