<?xml version="1.0" standalone="no"?>
<svg xmlns="http://www.w3.org/2000/svg" version="1.1" width="1200" height="1200" viewBox="477.878680 456.665476 56.970563 69.698485">
<line x1="500.000000" y1="500.000000" x2="497.878680" y2="502.121320" stroke="black" stroke-width="0.5" />
<line x1="497.878680" y1="502.121320" x2="500.000000" y2="504.242641" stroke="black" stroke-width="0.5" />
<line x1="500.000000" y1="504.242641" x2="502.121320" y2="506.363961" stroke="black" stroke-width="0.5" />
<line x1="502.121320" y1="506.363961" x2="504.242641" y2="504.242641" stroke="black" stroke-width="0.5" />
<line x1="504.242641" y1="504.242641" x2="506.363961" y2="506.363961" stroke="black" stroke-width="0.5" />
<line x1="506.363961" y1="506.363961" x2="508.485281" y2="504.242641" stroke="black" stroke-width="0.5" />
<line x1="508.485281" y1="504.242641" x2="510.606602" y2="502.121320" stroke="black" stroke-width="0.5" />
<line x1="510.606602" y1="502.121320" x2="508.485281" y2="500.000000" stroke="black" stroke-width="0.5" />
<line x1="508.485281" y1="500.000000" x2="510.606602" y2="502.121320" stroke="black" stroke-width="0.5" />
<line x1="510.606602" y1="502.121320" x2="512.727922" y2="500.000000" stroke="black" stroke-width="0.5" />
<line x1="512.727922" y1="500.000000" x2="514.849242" y2="497.878680" stroke="black" stroke-width="0.5" />
<line x1="514.849242" y1="497.878680" x2="512.727922" y2="495.757359" stroke="black" stroke-width="0.5" />
<line x1="512.727922" y1="495.757359" x2="514.849242" y2="493.636039" stroke="black" stroke-width="0.5" />
<line x1="514.849242" y1="493.636039" x2="512.727922" y2="491.514719" stroke="black" stroke-width="0.5" />
<line x1="512.727922" y1="491.514719" x2="510.606602" y2="489.393398" stroke="black" stroke-width="0.5" />
<line x1="510.606602" y1="489.393398" x2="508.485281" y2="491.514719" stroke="black" stroke-width="0.5" />
<line x1="508.485281" y1="491.514719" x2="510.606602" y2="493.636039" stroke="black" stroke-width="0.5" />
<line x1="510.606602" y1="493.636039" x2="512.727922" y2="491.514719" stroke="black" stroke-width="0.5" />
<line x1="512.727922" y1="491.514719" x2="514.849242" y2="489.393398" stroke="black" stroke-width="0.5" />
<line x1="514.849242" y1="489.393398" x2="512.727922" y2="487.272078" stroke="black" stroke-width="0.5" />
<line x1="512.727922" y1="487.272078" x2="514.849242" y2="485.150758" stroke="black" stroke-width="0.5" />
<line x1="514.849242" y1="485.150758" x2="512.727922" y2="483.029437" stroke="black" stroke-width="0.5" />
<line x1="512.727922" y1="483.029437" x2="510.606602" y2="480.908117" stroke="black" stroke-width="0.5" />
<line x1="510.606602" y1="480.908117" x2="508.485281" y2="483.029437" stroke="black" stroke-width="0.5" />
<line x1="508.485281" y1="483.029437" x2="510.606602" y2="480.908117" stroke="black" stroke-width="0.5" />
<line x1="510.606602" y1="480.908117" x2="508.485281" y2="478.786797" stroke="black" stroke-width="0.5" />
<line x1="508.485281" y1="478.786797" x2="506.363961" y2="476.665476" stroke="black" stroke-width="0.5" />
<line x1="506.363961" y1="476.665476" x2="504.242641" y2="478.786797" stroke="black" stroke-width="0.5" />
<line x1="504.242641" y1="478.786797" x2="502.121320" y2="476.665476" stroke="black" stroke-width="0.5" />
<line x1="502.121320" y1="476.665476" x2="500.000000" y2="478.786797" stroke="black" stroke-width="0.5" />
<line x1="500.000000" y1="478.786797" x2="497.878680" y2="480.908117" stroke="black" stroke-width="0.5" />
<line x1="497.878680" y1="480.908117" x2="500.000000" y2="483.029437" stroke="black" stroke-width="0.5" />
</svg>
