<?xml version="1.0" standalone="no"?>
<svg xmlns="http://www.w3.org/2000/svg" version="1.1" width="1200" height="1200" viewBox="480.000000 -249.000000 40.000000 769.000000">
<line x1="500.000000" y1="500.000000" x2="500.000000" y2="497.000000" stroke="black" stroke-width="0.5" />
<line x1="500.000000" y1="497.000000" x2="500.000000" y2="494.000000" stroke="black" stroke-width="0.5" />
<line x1="500.000000" y1="494.000000" x2="500.000000" y2="491.000000" stroke="black" stroke-width="0.5" />
<line x1="500.000000" y1="491.000000" x2="500.000000" y2="488.000000" stroke="black" stroke-width="0.5" />
<line x1="500.000000" y1="488.000000" x2="500.000000" y2="485.000000" stroke="black" stroke-width="0.5" />
<line x1="500.000000" y1="485.000000" x2="500.000000" y2="482.000000" stroke="black" stroke-width="0.5" />
<line x1="500.000000" y1="482.000000" x2="500.000000" y2="479.000000" stroke="black" stroke-width="0.5" />
<line x1="500.000000" y1="479.000000" x2="500.000000" y2="476.000000" stroke="black" stroke-width="0.5" />
<line x1="500.000000" y1="476.000000" x2="500.000000" y2="473.000000" stroke="black" stroke-width="0.5" />
<line x1="500.000000" y1="473.000000" x2="500.000000" y2="470.000000" stroke="black" stroke-width="0.5" />
<line x1="500.000000" y1="470.000000" x2="500.000000" y2="467.000000" stroke="black" stroke-width="0.5" />
<line x1="500.000000" y1="467.000000" x2="500.000000" y2="464.000000" stroke="black" stroke-width="0.5" />
<line x1="500.000000" y1="464.000000" x2="500.000000" y2="461.000000" stroke="black" stroke-width="0.5" />
<line x1="500.000000" y1="461.000000" x2="500.000000" y2="458.000000" stroke="black" stroke-width="0.5" />
<line x1="500.000000" y1="458.000000" x2="500.000000" y2="455.000000" stroke="black" stroke-width="0.5" />
<line x1="500.000000" y1="455.000000" x2="500.000000" y2="452.000000" stroke="black" stroke-width="0.5" />
<line x1="500.000000" y1="452.000000" x2="500.000000" y2="449.000000" stroke="black" stroke-width="0.5" />
<line x1="500.000000" y1="449.000000" x2="500.000000" y2="446.000000" stroke="black" stroke-width="0.5" />
<line x1="500.000000" y1="446.000000" x2="500.000000" y2="443.000000" stroke="black" stroke-width="0.5" />
<line x1="500.000000" y1="443.000000" x2="500.000000" y2="440.000000" stroke="black" stroke-width="0.5" />
<line x1="500.000000" y1="440.000000" x2="500.000000" y2="437.000000" stroke="black" stroke-width="0.5" />
<line x1="500.000000" y1="437.000000" x2="500.000000" y2="434.000000" stroke="black" stroke-width="0.5" />
<line x1="500.000000" y1="434.000000" x2="500.000000" y2="431.000000" stroke="black" stroke-width="0.5" />
<line x1="500.000000" y1="431.000000" x2="500.000000" y2="428.000000" stroke="black" stroke-width="0.5" />
<line x1="500.000000" y1="428.000000" x2="500.000000" y2="425.000000" stroke="black" stroke-width="0.5" />
<line x1="500.000000" y1="425.000000" x2="500.000000" y2="422.000000" stroke="black" stroke-width="0.5" />
<line x1="500.000000" y1="422.000000" x2="500.000000" y2="419.000000" stroke="black" stroke-width="0.5" />
<line x1="500.000000" y1="419.000000" x2="500.000000" y2="416.000000" stroke="black" stroke-width="0.5" />
<line x1="500.000000" y1="416.000000" x2="500.000000" y2="413.000000" stroke="black" stroke-width="0.5" />
<line x1="500.000000" y1="413.000000" x2="500.000000" y2="410.000000" stroke="black" stroke-width="0.5" />
<line x1="500.000000" y1="410.000000" x2="500.000000" y2="407.000000" stroke="black" stroke-width="0.5" />
<line x1="500.000000" y1="407.000000" x2="500.000000" y2="404.000000" stroke="black" stroke-width="0.5" />
<line x1="500.000000" y1="404.000000" x2="500.000000" y2="401.000000" stroke="black" stroke-width="0.5" />
<line x1="500.000000" y1="401.000000" x2="500.000000" y2="398.000000" stroke="black" stroke-width="0.5" />
<line x1="500.000000" y1="398.000000" x2="500.000000" y2="395.000000" stroke="black" stroke-width="0.5" />
<line x1="500.000000" y1="395.000000" x2="500.000000" y2="392.000000" stroke="black" stroke-width="0.5" />
<line x1="500.000000" y1="392.000000" x2="500.000000" y2="389.000000" stroke="black" stroke-width="0.5" />
<line x1="500.000000" y1="389.000000" x2="500.000000" y2="386.000000" stroke="black" stroke-width="0.5" />
<line x1="500.000000" y1="386.000000" x2="500.000000" y2="383.000000" stroke="black" stroke-width="0.5" />
<line x1="500.000000" y1="383.000000" x2="500.000000" y2="380.000000" stroke="black" stroke-width="0.5" />
<line x1="500.000000" y1="380.000000" x2="500.000000" y2="377.000000" stroke="black" stroke-width="0.5" />
<line x1="500.000000" y1="377.000000" x2="500.000000" y2="374.000000" stroke="black" stroke-width="0.5" />
<line x1="500.000000" y1="374.000000" x2="500.000000" y2="371.000000" stroke="black" stroke-width="0.5" />
<line x1="500.000000" y1="371.000000" x2="500.000000" y2="368.000000" stroke="black" stroke-width="0.5" />
<line x1="500.000000" y1="368.000000" x2="500.000000" y2="365.000000" stroke="black" stroke-width="0.5" />
<line x1="500.000000" y1="365.000000" x2="500.000000" y2="362.000000" stroke="black" stroke-width="0.5" />
<line x1="500.000000" y1="362.000000" x2="500.000000" y2="359.000000" stroke="black" stroke-width="0.5" />
<line x1="500.000000" y1="359.000000" x2="500.000000" y2="356.000000" stroke="black" stroke-width="0.5" />
<line x1="500.000000" y1="356.000000" x2="500.000000" y2="353.000000" stroke="black" stroke-width="0.5" />
<line x1="500.000000" y1="353.000000" x2="500.000000" y2="350.000000" stroke="black" stroke-width="0.5" />
<line x1="500.000000" y1="350.000000" x2="500.000000" y2="347.000000" stroke="black" stroke-width="0.5" />
<line x1="500.000000" y1="347.000000" x2="500.000000" y2="344.000000" stroke="black" stroke-width="0.5" />
<line x1="500.000000" y1="344.000000" x2="500.000000" y2="341.000000" stroke="black" stroke-width="0.5" />
<line x1="500.000000" y1="341.000000" x2="500.000000" y2="338.000000" stroke="black" stroke-width="0.5" />
<line x1="500.000000" y1="338.000000" x2="500.000000" y2="335.000000" stroke="black" stroke-width="0.5" />
<line x1="500.000000" y1="335.000000" x2="500.000000" y2="332.000000" stroke="black" stroke-width="0.5" />
<line x1="500.000000" y1="332.000000" x2="500.000000" y2="329.000000" stroke="black" stroke-width="0.5" />
<line x1="500.000000" y1="329.000000" x2="500.000000" y2="326.000000" stroke="black" stroke-width="0.5" />
<line x1="500.000000" y1="326.000000" x2="500.000000" y2="323.000000" stroke="black" stroke-width="0.5" />
<line x1="500.000000" y1="323.000000" x2="500.000000" y2="320.000000" stroke="black" stroke-width="0.5" />
<line x1="500.000000" y1="320.000000" x2="500.000000" y2="317.000000" stroke="black" stroke-width="0.5" />
<line x1="500.000000" y1="317.000000" x2="500.000000" y2="314.000000" stroke="black" stroke-width="0.5" />
<line x1="500.000000" y1="314.000000" x2="500.000000" y2="311.000000" stroke="black" stroke-width="0.5" />
<line x1="500.000000" y1="311.000000" x2="500.000000" y2="308.000000" stroke="black" stroke-width="0.5" />
<line x1="500.000000" y1="308.000000" x2="500.000000" y2="305.000000" stroke="black" stroke-width="0.5" />
<line x1="500.000000" y1="305.000000" x2="500.000000" y2="302.000000" stroke="black" stroke-width="0.5" />
<line x1="500.000000" y1="302.000000" x2="500.000000" y2="299.000000" stroke="black" stroke-width="0.5" />
<line x1="500.000000" y1="299.000000" x2="500.000000" y2="296.000000" stroke="black" stroke-width="0.5" />
<line x1="500.000000" y1="296.000000" x2="500.000000" y2="293.000000" stroke="black" stroke-width="0.5" />
<line x1="500.000000" y1="293.000000" x2="500.000000" y2="290.000000" stroke="black" stroke-width="0.5" />
<line x1="500.000000" y1="290.000000" x2="500.000000" y2="287.000000" stroke="black" stroke-width="0.5" />
<line x1="500.000000" y1="287.000000" x2="500.000000" y2="284.000000" stroke="black" stroke-width="0.5" />
<line x1="500.000000" y1="284.000000" x2="500.000000" y2="281.000000" stroke="black" stroke-width="0.5" />
<line x1="500.000000" y1="281.000000" x2="500.000000" y2="278.000000" stroke="black" stroke-width="0.5" />
<line x1="500.000000" y1="278.000000" x2="500.000000" y2="275.000000" stroke="black" stroke-width="0.5" />
<line x1="500.000000" y1="275.000000" x2="500.000000" y2="272.000000" stroke="black" stroke-width="0.5" />
<line x1="500.000000" y1="272.000000" x2="500.000000" y2="269.000000" stroke="black" stroke-width="0.5" />
<line x1="500.000000" y1="269.000000" x2="500.000000" y2="266.000000" stroke="black" stroke-width="0.5" />
<line x1="500.000000" y1="266.000000" x2="500.000000" y2="263.000000" stroke="black" stroke-width="0.5" />
<line x1="500.000000" y1="263.000000" x2="500.000000" y2="260.000000" stroke="black" stroke-width="0.5" />
<line x1="500.000000" y1="260.000000" x2="500.000000" y2="257.000000" stroke="black" stroke-width="0.5" />
<line x1="500.000000" y1="257.000000" x2="500.000000" y2="254.000000" stroke="black" stroke-width="0.5" />
<line x1="500.000000" y1="254.000000" x2="500.000000" y2="251.000000" stroke="black" stroke-width="0.5" />
<line x1="500.000000" y1="251.000000" x2="500.000000" y2="248.000000" stroke="black" stroke-width="0.5" />
<line x1="500.000000" y1="248.000000" x2="500.000000" y2="245.000000" stroke="black" stroke-width="0.5" />
<line x1="500.000000" y1="245.000000" x2="500.000000" y2="242.000000" stroke="black" stroke-width="0.5" />
<line x1="500.000000" y1="242.000000" x2="500.000000" y2="239.000000" stroke="black" stroke-width="0.5" />
<line x1="500.000000" y1="239.000000" x2="500.000000" y2="236.000000" stroke="black" stroke-width="0.5" />
<line x1="500.000000" y1="236.000000" x2="500.000000" y2="233.000000" stroke="black" stroke-width="0.5" />
<line x1="500.000000" y1="233.000000" x2="500.000000" y2="230.000000" stroke="black" stroke-width="0.5" />
<line x1="500.000000" y1="230.000000" x2="500.000000" y2="227.000000" stroke="black" stroke-width="0.5" />
<line x1="500.000000" y1="227.000000" x2="500.000000" y2="224.000000" stroke="black" stroke-width="0.5" />
<line x1="500.000000" y1="224.000000" x2="500.000000" y2="221.000000" stroke="black" stroke-width="0.5" />
<line x1="500.000000" y1="221.000000" x2="500.000000" y2="218.000000" stroke="black" stroke-width="0.5" />
<line x1="500.000000" y1="218.000000" x2="500.000000" y2="215.000000" stroke="black" stroke-width="0.5" />
<line x1="500.000000" y1="215.000000" x2="500.000000" y2="212.000000" stroke="black" stroke-width="0.5" />
<line x1="500.000000" y1="212.000000" x2="500.000000" y2="209.000000" stroke="black" stroke-width="0.5" />
<line x1="500.000000" y1="209.000000" x2="500.000000" y2="206.000000" stroke="black" stroke-width="0.5" />
<line x1="500.000000" y1="206.000000" x2="500.000000" y2="203.000000" stroke="black" stroke-width="0.5" />
<line x1="500.000000" y1="203.000000" x2="500.000000" y2="200.000000" stroke="black" stroke-width="0.5" />
<line x1="500.000000" y1="200.000000" x2="500.000000" y2="197.000000" stroke="black" stroke-width="0.5" />
<line x1="500.000000" y1="197.000000" x2="500.000000" y2="194.000000" stroke="black" stroke-width="0.5" />
<line x1="500.000000" y1="194.000000" x2="500.000000" y2="191.000000" stroke="black" stroke-width="0.5" />
<line x1="500.000000" y1="191.000000" x2="500.000000" y2="188.000000" stroke="black" stroke-width="0.5" />
<line x1="500.000000" y1="188.000000" x2="500.000000" y2="185.000000" stroke="black" stroke-width="0.5" />
<line x1="500.000000" y1="185.000000" x2="500.000000" y2="182.000000" stroke="black" stroke-width="0.5" />
<line x1="500.000000" y1="182.000000" x2="500.000000" y2="179.000000" stroke="black" stroke-width="0.5" />
<line x1="500.000000" y1="179.000000" x2="500.000000" y2="176.000000" stroke="black" stroke-width="0.5" />
<line x1="500.000000" y1="176.000000" x2="500.000000" y2="173.000000" stroke="black" stroke-width="0.5" />
<line x1="500.000000" y1="173.000000" x2="500.000000" y2="170.000000" stroke="black" stroke-width="0.5" />
<line x1="500.000000" y1="170.000000" x2="500.000000" y2="167.000000" stroke="black" stroke-width="0.5" />
<line x1="500.000000" y1="167.000000" x2="500.000000" y2="164.000000" stroke="black" stroke-width="0.5" />
<line x1="500.000000" y1="164.000000" x2="500.000000" y2="161.000000" stroke="black" stroke-width="0.5" />
<line x1="500.000000" y1="161.000000" x2="500.000000" y2="158.000000" stroke="black" stroke-width="0.5" />
<line x1="500.000000" y1="158.000000" x2="500.000000" y2="155.000000" stroke="black" stroke-width="0.5" />
<line x1="500.000000" y1="155.000000" x2="500.000000" y2="152.000000" stroke="black" stroke-width="0.5" />
<line x1="500.000000" y1="152.000000" x2="500.000000" y2="149.000000" stroke="black" stroke-width="0.5" />
<line x1="500.000000" y1="149.000000" x2="500.000000" y2="146.000000" stroke="black" stroke-width="0.5" />
<line x1="500.000000" y1="146.000000" x2="500.000000" y2="143.000000" stroke="black" stroke-width="0.5" />
<line x1="500.000000" y1="143.000000" x2="500.000000" y2="140.000000" stroke="black" stroke-width="0.5" />
<line x1="500.000000" y1="140.000000" x2="500.000000" y2="137.000000" stroke="black" stroke-width="0.5" />
<line x1="500.000000" y1="137.000000" x2="500.000000" y2="134.000000" stroke="black" stroke-width="0.5" />
<line x1="500.000000" y1="134.000000" x2="500.000000" y2="131.000000" stroke="black" stroke-width="0.5" />
<line x1="500.000000" y1="131.000000" x2="500.000000" y2="128.000000" stroke="black" stroke-width="0.5" />
<line x1="500.000000" y1="128.000000" x2="500.000000" y2="125.000000" stroke="black" stroke-width="0.5" />
<line x1="500.000000" y1="125.000000" x2="500.000000" y2="122.000000" stroke="black" stroke-width="0.5" />
<line x1="500.000000" y1="122.000000" x2="500.000000" y2="119.000000" stroke="black" stroke-width="0.5" />
<line x1="500.000000" y1="119.000000" x2="500.000000" y2="116.000000" stroke="black" stroke-width="0.5" />
<line x1="500.000000" y1="116.000000" x2="500.000000" y2="113.000000" stroke="black" stroke-width="0.5" />
<line x1="500.000000" y1="113.000000" x2="500.000000" y2="110.000000" stroke="black" stroke-width="0.5" />
<line x1="500.000000" y1="110.000000" x2="500.000000" y2="107.000000" stroke="black" stroke-width="0.5" />
<line x1="500.000000" y1="107.000000" x2="500.000000" y2="104.000000" stroke="black" stroke-width="0.5" />
<line x1="500.000000" y1="104.000000" x2="500.000000" y2="101.000000" stroke="black" stroke-width="0.5" />
<line x1="500.000000" y1="101.000000" x2="500.000000" y2="98.000000" stroke="black" stroke-width="0.5" />
<line x1="500.000000" y1="98.000000" x2="500.000000" y2="95.000000" stroke="black" stroke-width="0.5" />
<line x1="500.000000" y1="95.000000" x2="500.000000" y2="92.000000" stroke="black" stroke-width="0.5" />
<line x1="500.000000" y1="92.000000" x2="500.000000" y2="89.000000" stroke="black" stroke-width="0.5" />
<line x1="500.000000" y1="89.000000" x2="500.000000" y2="86.000000" stroke="black" stroke-width="0.5" />
<line x1="500.000000" y1="86.000000" x2="500.000000" y2="83.000000" stroke="black" stroke-width="0.5" />
<line x1="500.000000" y1="83.000000" x2="500.000000" y2="80.000000" stroke="black" stroke-width="0.5" />
<line x1="500.000000" y1="80.000000" x2="500.000000" y2="77.000000" stroke="black" stroke-width="0.5" />
<line x1="500.000000" y1="77.000000" x2="500.000000" y2="74.000000" stroke="black" stroke-width="0.5" />
<line x1="500.000000" y1="74.000000" x2="500.000000" y2="71.000000" stroke="black" stroke-width="0.5" />
<line x1="500.000000" y1="71.000000" x2="500.000000" y2="68.000000" stroke="black" stroke-width="0.5" />
<line x1="500.000000" y1="68.000000" x2="500.000000" y2="65.000000" stroke="black" stroke-width="0.5" />
<line x1="500.000000" y1="65.000000" x2="500.000000" y2="62.000000" stroke="black" stroke-width="0.5" />
<line x1="500.000000" y1="62.000000" x2="500.000000" y2="59.000000" stroke="black" stroke-width="0.5" />
<line x1="500.000000" y1="59.000000" x2="500.000000" y2="56.000000" stroke="black" stroke-width="0.5" />
<line x1="500.000000" y1="56.000000" x2="500.000000" y2="53.000000" stroke="black" stroke-width="0.5" />
<line x1="500.000000" y1="53.000000" x2="500.000000" y2="50.000000" stroke="black" stroke-width="0.5" />
<line x1="500.000000" y1="50.000000" x2="500.000000" y2="47.000000" stroke="black" stroke-width="0.5" />
<line x1="500.000000" y1="47.000000" x2="500.000000" y2="44.000000" stroke="black" stroke-width="0.5" />
<line x1="500.000000" y1="44.000000" x2="500.000000" y2="41.000000" stroke="black" stroke-width="0.5" />
<line x1="500.000000" y1="41.000000" x2="500.000000" y2="38.000000" stroke="black" stroke-width="0.5" />
<line x1="500.000000" y1="38.000000" x2="500.000000" y2="35.000000" stroke="black" stroke-width="0.5" />
<line x1="500.000000" y1="35.000000" x2="500.000000" y2="32.000000" stroke="black" stroke-width="0.5" />
<line x1="500.000000" y1="32.000000" x2="500.000000" y2="29.000000" stroke="black" stroke-width="0.5" />
<line x1="500.000000" y1="29.000000" x2="500.000000" y2="26.000000" stroke="black" stroke-width="0.5" />
<line x1="500.000000" y1="26.000000" x2="500.000000" y2="23.000000" stroke="black" stroke-width="0.5" />
<line x1="500.000000" y1="23.000000" x2="500.000000" y2="20.000000" stroke="black" stroke-width="0.5" />
<line x1="500.000000" y1="20.000000" x2="500.000000" y2="17.000000" stroke="black" stroke-width="0.5" />
<line x1="500.000000" y1="17.000000" x2="500.000000" y2="14.000000" stroke="black" stroke-width="0.5" />
<line x1="500.000000" y1="14.000000" x2="500.000000" y2="11.000000" stroke="black" stroke-width="0.5" />
<line x1="500.000000" y1="11.000000" x2="500.000000" y2="8.000000" stroke="black" stroke-width="0.5" />
<line x1="500.000000" y1="8.000000" x2="500.000000" y2="5.000000" stroke="black" stroke-width="0.5" />
<line x1="500.000000" y1="5.000000" x2="500.000000" y2="2.000000" stroke="black" stroke-width="0.5" />
<line x1="500.000000" y1="2.000000" x2="500.000000" y2="-1.000000" stroke="black" stroke-width="0.5" />
<line x1="500.000000" y1="-1.000000" x2="500.000000" y2="-4.000000" stroke="black" stroke-width="0.5" />
<line x1="500.000000" y1="-4.000000" x2="500.000000" y2="-7.000000" stroke="black" stroke-width="0.5" />
<line x1="500.000000" y1="-7.000000" x2="500.000000" y2="-10.000000" stroke="black" stroke-width="0.5" />
<line x1="500.000000" y1="-10.000000" x2="500.000000" y2="-13.000000" stroke="black" stroke-width="0.5" />
<line x1="500.000000" y1="-13.000000" x2="500.000000" y2="-16.000000" stroke="black" stroke-width="0.5" />
<line x1="500.000000" y1="-16.000000" x2="500.000000" y2="-19.000000" stroke="black" stroke-width="0.5" />
<line x1="500.000000" y1="-19.000000" x2="500.000000" y2="-22.000000" stroke="black" stroke-width="0.5" />
<line x1="500.000000" y1="-22.000000" x2="500.000000" y2="-25.000000" stroke="black" stroke-width="0.5" />
<line x1="500.000000" y1="-25.000000" x2="500.000000" y2="-28.000000" stroke="black" stroke-width="0.5" />
<line x1="500.000000" y1="-28.000000" x2="500.000000" y2="-31.000000" stroke="black" stroke-width="0.5" />
<line x1="500.000000" y1="-31.000000" x2="500.000000" y2="-34.000000" stroke="black" stroke-width="0.5" />
<line x1="500.000000" y1="-34.000000" x2="500.000000" y2="-37.000000" stroke="black" stroke-width="0.5" />
<line x1="500.000000" y1="-37.000000" x2="500.000000" y2="-40.000000" stroke="black" stroke-width="0.5" />
<line x1="500.000000" y1="-40.000000" x2="500.000000" y2="-43.000000" stroke="black" stroke-width="0.5" />
<line x1="500.000000" y1="-43.000000" x2="500.000000" y2="-46.000000" stroke="black" stroke-width="0.5" />
<line x1="500.000000" y1="-46.000000" x2="500.000000" y2="-49.000000" stroke="black" stroke-width="0.5" />
<line x1="500.000000" y1="-49.000000" x2="500.000000" y2="-52.000000" stroke="black" stroke-width="0.5" />
<line x1="500.000000" y1="-52.000000" x2="500.000000" y2="-55.000000" stroke="black" stroke-width="0.5" />
<line x1="500.000000" y1="-55.000000" x2="500.000000" y2="-58.000000" stroke="black" stroke-width="0.5" />
<line x1="500.000000" y1="-58.000000" x2="500.000000" y2="-61.000000" stroke="black" stroke-width="0.5" />
<line x1="500.000000" y1="-61.000000" x2="500.000000" y2="-64.000000" stroke="black" stroke-width="0.5" />
<line x1="500.000000" y1="-64.000000" x2="500.000000" y2="-67.000000" stroke="black" stroke-width="0.5" />
<line x1="500.000000" y1="-67.000000" x2="500.000000" y2="-70.000000" stroke="black" stroke-width="0.5" />
<line x1="500.000000" y1="-70.000000" x2="500.000000" y2="-73.000000" stroke="black" stroke-width="0.5" />
<line x1="500.000000" y1="-73.000000" x2="500.000000" y2="-76.000000" stroke="black" stroke-width="0.5" />
<line x1="500.000000" y1="-76.000000" x2="500.000000" y2="-79.000000" stroke="black" stroke-width="0.5" />
<line x1="500.000000" y1="-79.000000" x2="500.000000" y2="-82.000000" stroke="black" stroke-width="0.5" />
<line x1="500.000000" y1="-82.000000" x2="500.000000" y2="-85.000000" stroke="black" stroke-width="0.5" />
<line x1="500.000000" y1="-85.000000" x2="500.000000" y2="-88.000000" stroke="black" stroke-width="0.5" />
<line x1="500.000000" y1="-88.000000" x2="500.000000" y2="-91.000000" stroke="black" stroke-width="0.5" />
<line x1="500.000000" y1="-91.000000" x2="500.000000" y2="-94.000000" stroke="black" stroke-width="0.5" />
<line x1="500.000000" y1="-94.000000" x2="500.000000" y2="-97.000000" stroke="black" stroke-width="0.5" />
<line x1="500.000000" y1="-97.000000" x2="500.000000" y2="-100.000000" stroke="black" stroke-width="0.5" />
<line x1="500.000000" y1="-100.000000" x2="500.000000" y2="-103.000000" stroke="black" stroke-width="0.5" />
<line x1="500.000000" y1="-103.000000" x2="500.000000" y2="-106.000000" stroke="black" stroke-width="0.5" />
<line x1="500.000000" y1="-106.000000" x2="500.000000" y2="-109.000000" stroke="black" stroke-width="0.5" />
<line x1="500.000000" y1="-109.000000" x2="500.000000" y2="-112.000000" stroke="black" stroke-width="0.5" />
<line x1="500.000000" y1="-112.000000" x2="500.000000" y2="-115.000000" stroke="black" stroke-width="0.5" />
<line x1="500.000000" y1="-115.000000" x2="500.000000" y2="-118.000000" stroke="black" stroke-width="0.5" />
<line x1="500.000000" y1="-118.000000" x2="500.000000" y2="-121.000000" stroke="black" stroke-width="0.5" />
<line x1="500.000000" y1="-121.000000" x2="500.000000" y2="-124.000000" stroke="black" stroke-width="0.5" />
<line x1="500.000000" y1="-124.000000" x2="500.000000" y2="-127.000000" stroke="black" stroke-width="0.5" />
<line x1="500.000000" y1="-127.000000" x2="500.000000" y2="-130.000000" stroke="black" stroke-width="0.5" />
<line x1="500.000000" y1="-130.000000" x2="500.000000" y2="-133.000000" stroke="black" stroke-width="0.5" />
<line x1="500.000000" y1="-133.000000" x2="500.000000" y2="-136.000000" stroke="black" stroke-width="0.5" />
<line x1="500.000000" y1="-136.000000" x2="500.000000" y2="-139.000000" stroke="black" stroke-width="0.5" />
<line x1="500.000000" y1="-139.000000" x2="500.000000" y2="-142.000000" stroke="black" stroke-width="0.5" />
<line x1="500.000000" y1="-142.000000" x2="500.000000" y2="-145.000000" stroke="black" stroke-width="0.5" />
<line x1="500.000000" y1="-145.000000" x2="500.000000" y2="-148.000000" stroke="black" stroke-width="0.5" />
<line x1="500.000000" y1="-148.000000" x2="500.000000" y2="-151.000000" stroke="black" stroke-width="0.5" />
<line x1="500.000000" y1="-151.000000" x2="500.000000" y2="-154.000000" stroke="black" stroke-width="0.5" />
<line x1="500.000000" y1="-154.000000" x2="500.000000" y2="-157.000000" stroke="black" stroke-width="0.5" />
<line x1="500.000000" y1="-157.000000" x2="500.000000" y2="-160.000000" stroke="black" stroke-width="0.5" />
<line x1="500.000000" y1="-160.000000" x2="500.000000" y2="-163.000000" stroke="black" stroke-width="0.5" />
<line x1="500.000000" y1="-163.000000" x2="500.000000" y2="-166.000000" stroke="black" stroke-width="0.5" />
<line x1="500.000000" y1="-166.000000" x2="500.000000" y2="-169.000000" stroke="black" stroke-width="0.5" />
<line x1="500.000000" y1="-169.000000" x2="500.000000" y2="-172.000000" stroke="black" stroke-width="0.5" />
<line x1="500.000000" y1="-172.000000" x2="500.000000" y2="-175.000000" stroke="black" stroke-width="0.5" />
<line x1="500.000000" y1="-175.000000" x2="500.000000" y2="-178.000000" stroke="black" stroke-width="0.5" />
<line x1="500.000000" y1="-178.000000" x2="500.000000" y2="-181.000000" stroke="black" stroke-width="0.5" />
<line x1="500.000000" y1="-181.000000" x2="500.000000" y2="-184.000000" stroke="black" stroke-width="0.5" />
<line x1="500.000000" y1="-184.000000" x2="500.000000" y2="-187.000000" stroke="black" stroke-width="0.5" />
<line x1="500.000000" y1="-187.000000" x2="500.000000" y2="-190.000000" stroke="black" stroke-width="0.5" />
<line x1="500.000000" y1="-190.000000" x2="500.000000" y2="-193.000000" stroke="black" stroke-width="0.5" />
<line x1="500.000000" y1="-193.000000" x2="500.000000" y2="-196.000000" stroke="black" stroke-width="0.5" />
<line x1="500.000000" y1="-196.000000" x2="500.000000" y2="-199.000000" stroke="black" stroke-width="0.5" />
<line x1="500.000000" y1="-199.000000" x2="500.000000" y2="-202.000000" stroke="black" stroke-width="0.5" />
<line x1="500.000000" y1="-202.000000" x2="500.000000" y2="-205.000000" stroke="black" stroke-width="0.5" />
<line x1="500.000000" y1="-205.000000" x2="500.000000" y2="-208.000000" stroke="black" stroke-width="0.5" />
<line x1="500.000000" y1="-208.000000" x2="500.000000" y2="-211.000000" stroke="black" stroke-width="0.5" />
<line x1="500.000000" y1="-211.000000" x2="500.000000" y2="-214.000000" stroke="black" stroke-width="0.5" />
<line x1="500.000000" y1="-214.000000" x2="500.000000" y2="-217.000000" stroke="black" stroke-width="0.5" />
<line x1="500.000000" y1="-217.000000" x2="500.000000" y2="-220.000000" stroke="black" stroke-width="0.5" />
<line x1="500.000000" y1="-220.000000" x2="500.000000" y2="-223.000000" stroke="black" stroke-width="0.5" />
<line x1="500.000000" y1="-223.000000" x2="500.000000" y2="-226.000000" stroke="black" stroke-width="0.5" />
<line x1="500.000000" y1="-226.000000" x2="500.000000" y2="-229.000000" stroke="black" stroke-width="0.5" />
</svg>
