<?xml version="1.0" standalone="no"?>
<svg xmlns="http://www.w3.org/2000/svg" version="1.1" width="1200" height="1200" viewBox="480.000000 433.500000 81.569219 86.500000">
<line x1="500.000000" y1="500.000000" x2="502.598076" y2="498.500000" stroke="black" stroke-width="0.5" />
<line x1="502.598076" y1="498.500000" x2="505.196152" y2="497.000000" stroke="black" stroke-width="0.5" />
<line x1="505.196152" y1="497.000000" x2="502.598076" y2="495.500000" stroke="black" stroke-width="0.5" />
<line x1="502.598076" y1="495.500000" x2="500.000000" y2="494.000000" stroke="black" stroke-width="0.5" />
<line x1="500.000000" y1="494.000000" x2="502.598076" y2="492.500000" stroke="black" stroke-width="0.5" />
<line x1="502.598076" y1="492.500000" x2="500.000000" y2="491.000000" stroke="black" stroke-width="0.5" />
<line x1="500.000000" y1="491.000000" x2="502.598076" y2="489.500000" stroke="black" stroke-width="0.5" />
<line x1="502.598076" y1="489.500000" x2="502.598076" y2="492.500000" stroke="black" stroke-width="0.5" />
<line x1="502.598076" y1="492.500000" x2="505.196152" y2="491.000000" stroke="black" stroke-width="0.5" />
<line x1="505.196152" y1="491.000000" x2="505.196152" y2="494.000000" stroke="black" stroke-width="0.5" />
<line x1="505.196152" y1="494.000000" x2="505.196152" y2="497.000000" stroke="black" stroke-width="0.5" />
<line x1="505.196152" y1="497.000000" x2="507.794229" y2="495.500000" stroke="black" stroke-width="0.5" />
<line x1="507.794229" y1="495.500000" x2="510.392305" y2="494.000000" stroke="black" stroke-width="0.5" />
<line x1="510.392305" y1="494.000000" x2="512.990381" y2="492.500000" stroke="black" stroke-width="0.5" />
<line x1="512.990381" y1="492.500000" x2="510.392305" y2="491.000000" stroke="black" stroke-width="0.5" />
<line x1="510.392305" y1="491.000000" x2="512.990381" y2="489.500000" stroke="black" stroke-width="0.5" />
<line x1="512.990381" y1="489.500000" x2="512.990381" y2="492.500000" stroke="black" stroke-width="0.5" />
<line x1="512.990381" y1="492.500000" x2="515.588457" y2="491.000000" stroke="black" stroke-width="0.5" />
<line x1="515.588457" y1="491.000000" x2="518.186533" y2="489.500000" stroke="black" stroke-width="0.5" />
<line x1="518.186533" y1="489.500000" x2="520.784610" y2="488.000000" stroke="black" stroke-width="0.5" />
<line x1="520.784610" y1="488.000000" x2="518.186533" y2="486.500000" stroke="black" stroke-width="0.5" />
<line x1="518.186533" y1="486.500000" x2="515.588457" y2="485.000000" stroke="black" stroke-width="0.5" />
<line x1="515.588457" y1="485.000000" x2="512.990381" y2="483.500000" stroke="black" stroke-width="0.5" />
<line x1="512.990381" y1="483.500000" x2="512.990381" y2="486.500000" stroke="black" stroke-width="0.5" />
<line x1="512.990381" y1="486.500000" x2="510.392305" y2="485.000000" stroke="black" stroke-width="0.5" />
<line x1="510.392305" y1="485.000000" x2="512.990381" y2="483.500000" stroke="black" stroke-width="0.5" />
<line x1="512.990381" y1="483.500000" x2="510.392305" y2="482.000000" stroke="black" stroke-width="0.5" />
<line x1="510.392305" y1="482.000000" x2="507.794229" y2="480.500000" stroke="black" stroke-width="0.5" />
<line x1="507.794229" y1="480.500000" x2="505.196152" y2="479.000000" stroke="black" stroke-width="0.5" />
<line x1="505.196152" y1="479.000000" x2="505.196152" y2="482.000000" stroke="black" stroke-width="0.5" />
<line x1="505.196152" y1="482.000000" x2="505.196152" y2="485.000000" stroke="black" stroke-width="0.5" />
<line x1="505.196152" y1="485.000000" x2="502.598076" y2="483.500000" stroke="black" stroke-width="0.5" />
<line x1="502.598076" y1="483.500000" x2="502.598076" y2="486.500000" stroke="black" stroke-width="0.5" />
<line x1="502.598076" y1="486.500000" x2="500.000000" y2="485.000000" stroke="black" stroke-width="0.5" />
<line x1="500.000000" y1="485.000000" x2="502.598076" y2="483.500000" stroke="black" stroke-width="0.5" />
<line x1="502.598076" y1="483.500000" x2="500.000000" y2="482.000000" stroke="black" stroke-width="0.5" />
<line x1="500.000000" y1="482.000000" x2="502.598076" y2="480.500000" stroke="black" stroke-width="0.5" />
<line x1="502.598076" y1="480.500000" x2="505.196152" y2="479.000000" stroke="black" stroke-width="0.5" />
<line x1="505.196152" y1="479.000000" x2="502.598076" y2="477.500000" stroke="black" stroke-width="0.5" />
<line x1="502.598076" y1="477.500000" x2="500.000000" y2="476.000000" stroke="black" stroke-width="0.5" />
<line x1="500.000000" y1="476.000000" x2="502.598076" y2="474.500000" stroke="black" stroke-width="0.5" />
<line x1="502.598076" y1="474.500000" x2="500.000000" y2="473.000000" stroke="black" stroke-width="0.5" />
<line x1="500.000000" y1="473.000000" x2="502.598076" y2="471.500000" stroke="black" stroke-width="0.5" />
<line x1="502.598076" y1="471.500000" x2="502.598076" y2="474.500000" stroke="black" stroke-width="0.5" />
<line x1="502.598076" y1="474.500000" x2="505.196152" y2="473.000000" stroke="black" stroke-width="0.5" />
<line x1="505.196152" y1="473.000000" x2="507.794229" y2="471.500000" stroke="black" stroke-width="0.5" />
<line x1="507.794229" y1="471.500000" x2="510.392305" y2="470.000000" stroke="black" stroke-width="0.5" />
<line x1="510.392305" y1="470.000000" x2="507.794229" y2="468.500000" stroke="black" stroke-width="0.5" />
<line x1="507.794229" y1="468.500000" x2="505.196152" y2="467.000000" stroke="black" stroke-width="0.5" />
<line x1="505.196152" y1="467.000000" x2="502.598076" y2="465.500000" stroke="black" stroke-width="0.5" />
<line x1="502.598076" y1="465.500000" x2="502.598076" y2="468.500000" stroke="black" stroke-width="0.5" />
<line x1="502.598076" y1="468.500000" x2="500.000000" y2="467.000000" stroke="black" stroke-width="0.5" />
<line x1="500.000000" y1="467.000000" x2="502.598076" y2="465.500000" stroke="black" stroke-width="0.5" />
<line x1="502.598076" y1="465.500000" x2="500.000000" y2="464.000000" stroke="black" stroke-width="0.5" />
<line x1="500.000000" y1="464.000000" x2="502.598076" y2="462.500000" stroke="black" stroke-width="0.5" />
<line x1="502.598076" y1="462.500000" x2="505.196152" y2="461.000000" stroke="black" stroke-width="0.5" />
<line x1="505.196152" y1="461.000000" x2="502.598076" y2="459.500000" stroke="black" stroke-width="0.5" />
<line x1="502.598076" y1="459.500000" x2="500.000000" y2="458.000000" stroke="black" stroke-width="0.5" />
<line x1="500.000000" y1="458.000000" x2="502.598076" y2="456.500000" stroke="black" stroke-width="0.5" />
<line x1="502.598076" y1="456.500000" x2="500.000000" y2="455.000000" stroke="black" stroke-width="0.5" />
<line x1="500.000000" y1="455.000000" x2="502.598076" y2="453.500000" stroke="black" stroke-width="0.5" />
<line x1="502.598076" y1="453.500000" x2="502.598076" y2="456.500000" stroke="black" stroke-width="0.5" />
<line x1="502.598076" y1="456.500000" x2="505.196152" y2="455.000000" stroke="black" stroke-width="0.5" />
<line x1="505.196152" y1="455.000000" x2="505.196152" y2="458.000000" stroke="black" stroke-width="0.5" />
<line x1="505.196152" y1="458.000000" x2="505.196152" y2="461.000000" stroke="black" stroke-width="0.5" />
<line x1="505.196152" y1="461.000000" x2="507.794229" y2="459.500000" stroke="black" stroke-width="0.5" />
<line x1="507.794229" y1="459.500000" x2="510.392305" y2="458.000000" stroke="black" stroke-width="0.5" />
<line x1="510.392305" y1="458.000000" x2="510.392305" y2="461.000000" stroke="black" stroke-width="0.5" />
<line x1="510.392305" y1="461.000000" x2="512.990381" y2="459.500000" stroke="black" stroke-width="0.5" />
<line x1="512.990381" y1="459.500000" x2="512.990381" y2="462.500000" stroke="black" stroke-width="0.5" />
<line x1="512.990381" y1="462.500000" x2="510.392305" y2="461.000000" stroke="black" stroke-width="0.5" />
<line x1="510.392305" y1="461.000000" x2="510.392305" y2="464.000000" stroke="black" stroke-width="0.5" />
<line x1="510.392305" y1="464.000000" x2="510.392305" y2="467.000000" stroke="black" stroke-width="0.5" />
<line x1="510.392305" y1="467.000000" x2="510.392305" y2="470.000000" stroke="black" stroke-width="0.5" />
<line x1="510.392305" y1="470.000000" x2="512.990381" y2="468.500000" stroke="black" stroke-width="0.5" />
<line x1="512.990381" y1="468.500000" x2="515.588457" y2="467.000000" stroke="black" stroke-width="0.5" />
<line x1="515.588457" y1="467.000000" x2="518.186533" y2="465.500000" stroke="black" stroke-width="0.5" />
<line x1="518.186533" y1="465.500000" x2="515.588457" y2="464.000000" stroke="black" stroke-width="0.5" />
<line x1="515.588457" y1="464.000000" x2="518.186533" y2="462.500000" stroke="black" stroke-width="0.5" />
<line x1="518.186533" y1="462.500000" x2="518.186533" y2="465.500000" stroke="black" stroke-width="0.5" />
<line x1="518.186533" y1="465.500000" x2="520.784610" y2="464.000000" stroke="black" stroke-width="0.5" />
<line x1="520.784610" y1="464.000000" x2="520.784610" y2="467.000000" stroke="black" stroke-width="0.5" />
<line x1="520.784610" y1="467.000000" x2="520.784610" y2="470.000000" stroke="black" stroke-width="0.5" />
<line x1="520.784610" y1="470.000000" x2="523.382686" y2="468.500000" stroke="black" stroke-width="0.5" />
<line x1="523.382686" y1="468.500000" x2="525.980762" y2="467.000000" stroke="black" stroke-width="0.5" />
<line x1="525.980762" y1="467.000000" x2="525.980762" y2="470.000000" stroke="black" stroke-width="0.5" />
<line x1="525.980762" y1="470.000000" x2="528.578838" y2="468.500000" stroke="black" stroke-width="0.5" />
<line x1="528.578838" y1="468.500000" x2="528.578838" y2="471.500000" stroke="black" stroke-width="0.5" />
<line x1="528.578838" y1="471.500000" x2="525.980762" y2="470.000000" stroke="black" stroke-width="0.5" />
<line x1="525.980762" y1="470.000000" x2="525.980762" y2="473.000000" stroke="black" stroke-width="0.5" />
<line x1="525.980762" y1="473.000000" x2="523.382686" y2="471.500000" stroke="black" stroke-width="0.5" />
<line x1="523.382686" y1="471.500000" x2="520.784610" y2="470.000000" stroke="black" stroke-width="0.5" />
<line x1="520.784610" y1="470.000000" x2="520.784610" y2="473.000000" stroke="black" stroke-width="0.5" />
<line x1="520.784610" y1="473.000000" x2="520.784610" y2="476.000000" stroke="black" stroke-width="0.5" />
<line x1="520.784610" y1="476.000000" x2="520.784610" y2="479.000000" stroke="black" stroke-width="0.5" />
<line x1="520.784610" y1="479.000000" x2="523.382686" y2="477.500000" stroke="black" stroke-width="0.5" />
<line x1="523.382686" y1="477.500000" x2="523.382686" y2="480.500000" stroke="black" stroke-width="0.5" />
<line x1="523.382686" y1="480.500000" x2="520.784610" y2="479.000000" stroke="black" stroke-width="0.5" />
<line x1="520.784610" y1="479.000000" x2="520.784610" y2="482.000000" stroke="black" stroke-width="0.5" />
<line x1="520.784610" y1="482.000000" x2="520.784610" y2="485.000000" stroke="black" stroke-width="0.5" />
<line x1="520.784610" y1="485.000000" x2="520.784610" y2="488.000000" stroke="black" stroke-width="0.5" />
<line x1="520.784610" y1="488.000000" x2="523.382686" y2="486.500000" stroke="black" stroke-width="0.5" />
<line x1="523.382686" y1="486.500000" x2="525.980762" y2="485.000000" stroke="black" stroke-width="0.5" />
<line x1="525.980762" y1="485.000000" x2="528.578838" y2="483.500000" stroke="black" stroke-width="0.5" />
<line x1="528.578838" y1="483.500000" x2="525.980762" y2="482.000000" stroke="black" stroke-width="0.5" />
<line x1="525.980762" y1="482.000000" x2="528.578838" y2="480.500000" stroke="black" stroke-width="0.5" />
<line x1="528.578838" y1="480.500000" x2="528.578838" y2="483.500000" stroke="black" stroke-width="0.5" />
<line x1="528.578838" y1="483.500000" x2="531.176915" y2="482.000000" stroke="black" stroke-width="0.5" />
<line x1="531.176915" y1="482.000000" x2="533.774991" y2="480.500000" stroke="black" stroke-width="0.5" />
<line x1="533.774991" y1="480.500000" x2="536.373067" y2="479.000000" stroke="black" stroke-width="0.5" />
<line x1="536.373067" y1="479.000000" x2="533.774991" y2="477.500000" stroke="black" stroke-width="0.5" />
<line x1="533.774991" y1="477.500000" x2="531.176915" y2="476.000000" stroke="black" stroke-width="0.5" />
<line x1="531.176915" y1="476.000000" x2="533.774991" y2="474.500000" stroke="black" stroke-width="0.5" />
<line x1="533.774991" y1="474.500000" x2="531.176915" y2="473.000000" stroke="black" stroke-width="0.5" />
<line x1="531.176915" y1="473.000000" x2="533.774991" y2="471.500000" stroke="black" stroke-width="0.5" />
<line x1="533.774991" y1="471.500000" x2="533.774991" y2="474.500000" stroke="black" stroke-width="0.5" />
<line x1="533.774991" y1="474.500000" x2="536.373067" y2="473.000000" stroke="black" stroke-width="0.5" />
<line x1="536.373067" y1="473.000000" x2="536.373067" y2="476.000000" stroke="black" stroke-width="0.5" />
<line x1="536.373067" y1="476.000000" x2="536.373067" y2="479.000000" stroke="black" stroke-width="0.5" />
<line x1="536.373067" y1="479.000000" x2="538.971143" y2="477.500000" stroke="black" stroke-width="0.5" />
<line x1="538.971143" y1="477.500000" x2="541.569219" y2="476.000000" stroke="black" stroke-width="0.5" />
</svg>
